<?xml version="1.0" encoding="UTF-8"?>
<svg width="92px" height="157px" viewBox="0 0 92 157" version="1.1" xmlns="http://www.w3.org/2000/svg" xmlns:xlink="http://www.w3.org/1999/xlink">
    <!-- Generator: Sketch 47.1 (45422) - http://www.bohemiancoding.com/sketch -->
    <title>1</title>
    <desc>Created with Sketch.</desc>
    <defs>
        <linearGradient x1="0%" y1="0%" x2="100%" y2="100%" id="linearGradient-1">
            <stop stop-color="#EC008C" offset="0%"></stop>
            <stop stop-color="#6FBAFF" offset="100%"></stop>
        </linearGradient>
    </defs>
    <g id="Page-1" stroke="none" stroke-width="1" fill="none" fill-rule="evenodd">
        <g id="Artboard-2" transform="translate(-1426.000000, -62.000000)" fill="url(#linearGradient-1)">
            <path d="M1435,62 L1509,62 C1513.97056,62 1518,66.0294373 1518,71 L1518,210 C1518,214.970563 1513.97056,219 1509,219 L1435,219 C1430.02944,219 1426,214.970563 1426,210 L1426,71 C1426,66.0294373 1430.02944,62 1435,62 Z M1435,64 C1431.13401,64 1428,67.1340068 1428,71 L1428,210 C1428,213.865993 1431.13401,217 1435,217 L1509,217 C1512.86599,217 1516,213.865993 1516,210 L1516,71 C1516,67.1340068 1512.86599,64 1509,64 L1435,64 Z M1473,109.414214 L1473,124 C1473,124.552285 1472.55228,125 1472,125 C1471.44772,125 1471,124.552285 1471,124 L1471,109.414214 L1466.70711,113.707107 C1466.31658,114.097631 1465.68342,114.097631 1465.29289,113.707107 C1464.90237,113.316582 1464.90237,112.683418 1465.29289,112.292893 L1472,105.585786 L1478.70711,112.292893 C1479.09763,112.683418 1479.09763,113.316582 1478.70711,113.707107 C1478.31658,114.097631 1477.68342,114.097631 1477.29289,113.707107 L1473,109.414214 Z M1487,167 L1487,173 L1497,173 C1498.65685,173 1500,171.656854 1500,170 C1500,168.343146 1498.65685,167 1497,167 L1487,167 Z M1447,165 L1497,165 C1499.76142,165 1502,167.238576 1502,170 C1502,172.761424 1499.76142,175 1497,175 L1447,175 C1444.23858,175 1442,172.761424 1442,170 C1442,167.238576 1444.23858,165 1447,165 Z M1472,211 C1467.58172,211 1464,207.418278 1464,203 C1464,198.581722 1467.58172,195 1472,195 C1476.41828,195 1480,198.581722 1480,203 C1480,207.418278 1476.41828,211 1472,211 Z M1472,209 C1475.31371,209 1478,206.313708 1478,203 C1478,199.686292 1475.31371,197 1472,197 C1468.68629,197 1466,199.686292 1466,203 C1466,206.313708 1468.68629,209 1472,209 Z M1428,188 L1516,188 L1516,190 L1428,190 L1428,188 Z M1428,82 L1516,82 L1516,84 L1428,84 L1428,82 Z M1458,132 L1486,132 L1486,121 C1486,120.447715 1486.44772,120 1487,120 C1487.55228,120 1488,120.447715 1488,121 L1488,134 L1456,134 L1456,121 C1456,120.447715 1456.44772,120 1457,120 C1457.55228,120 1458,120.447715 1458,121 L1458,132 Z" id="1"></path>
        </g>
    </g>
</svg>