<?xml version="1.0" encoding="UTF-8"?>
<svg width="74px" height="89px" viewBox="0 0 74 89" version="1.1" xmlns="http://www.w3.org/2000/svg" xmlns:xlink="http://www.w3.org/1999/xlink">
    <!-- Generator: Sketch 48.1 (47250) - http://www.bohemiancoding.com/sketch -->
    <title>1_cb</title>
    <desc>Created with Sketch.</desc>
    <defs></defs>
    <g id="Page-1" stroke="none" stroke-width="1" fill="none" fill-rule="evenodd">
        <path d="M65.5,34.0857864 L71.5857864,28 L64,20.4142136 L36.374032,48.0401815 L32.5811388,59.4188612 L43.9598185,55.625968 L64.0857864,35.5 L57.2928932,28.7071068 C56.9023689,28.3165825 56.9023689,27.6834175 57.2928932,27.2928932 C57.6834175,26.9023689 58.3165825,26.9023689 58.7071068,27.2928932 L65.5,34.0857864 Z M2.04485223,12 L53.9551478,12 C53.4498498,6.39383964 48.7376276,2 43,2 L13,2 C7.26237243,2 2.5501502,6.39383964 2.04485223,12 Z M54,14 L2,14 L2,69 L54,69 L54,54.484 C54,53.9317153 54.4477153,53.484 55,53.484 C55.5522847,53.484 56,53.9317153 56,54.484 L56,76 C56,83.1792847 50.1792847,89 43,89 L13,89 C5.82071525,89 0,83.1792847 0,76 L0,13 C0,5.82071525 5.82071525,0 13,0 L43,0 C50.1792847,0 56,5.82071525 56,13 L56,19.513 C56,20.0652847 55.5522847,20.513 55,20.513 C54.4477153,20.513 54,20.0652847 54,19.513 L54,14 Z M54,71 L2,71 L2,76 C2,82.0747153 6.92528475,87 13,87 L43,87 C49.0747153,87 54,82.0747153 54,76 L54,71 Z M30,80.5 C30,80.2242847 29.7757153,80 29.5,80 C29.2242847,80 29,80.2242847 29,80.5 C29,80.7757153 29.2242847,81 29.5,81 C29.7757153,81 30,80.7757153 30,80.5 Z M32,80.5 C32,81.8802847 30.8802847,83 29.5,83 C28.1197153,83 27,81.8802847 27,80.5 C27,79.1197153 28.1197153,78 29.5,78 C30.8802847,78 32,79.1197153 32,80.5 Z M46,8.5 C46,9.328 45.328,10 44.5,10 C43.672,10 43,9.328 43,8.5 C43,7.672 43.672,7 44.5,7 C45.328,7 46,7.672 46,8.5 Z M25,8 C24.4477153,8 24,7.55228475 24,7 C24,6.44771525 24.4477153,6 25,6 L31,6 C31.5522847,6 32,6.44771525 32,7 C32,7.55228475 31.5522847,8 31,8 L25,8 Z M31.3162278,61.9486833 C30.5344697,62.2092693 29.7907307,61.4655303 30.0513167,60.6837722 L34.5513167,47.1837722 C34.6004095,47.0364938 34.6831184,46.9026681 34.7928932,46.7928932 L63.2928932,18.2928932 C63.6834175,17.9023689 64.3165825,17.9023689 64.7071068,18.2928932 L73.7071068,27.2928932 C74.0976311,27.6834175 74.0976311,28.3165825 73.7071068,28.7071068 L45.2071068,57.2071068 C45.0973319,57.3168816 44.9635062,57.3995905 44.8162278,57.4486833 L31.3162278,61.9486833 Z M13,44 C12.4477153,44 12,43.5522847 12,43 C12,42.4477153 12.4477153,42 13,42 L25,42 C25.5522847,42 26,42.4477153 26,43 C26,43.5522847 25.5522847,44 25,44 L13,44 Z" id="1_cb" fill="#FD002B" fill-rule="nonzero"></path>
    </g>
</svg>