<?xml version="1.0" encoding="UTF-8"?>
<svg width="56px" height="89px" viewBox="0 0 56 89" version="1.1" xmlns="http://www.w3.org/2000/svg" xmlns:xlink="http://www.w3.org/1999/xlink">
    <!-- Generator: Sketch 48.1 (47250) - http://www.bohemiancoding.com/sketch -->
    <title>1_pr</title>
    <desc>Created with Sketch.</desc>
    <defs>
        <linearGradient x1="0%" y1="0%" x2="100%" y2="100%" id="linearGradient-1">
            <stop stop-color="#EC008C" offset="0%"></stop>
            <stop stop-color="#6FBAFF" offset="100%"></stop>
        </linearGradient>
    </defs>
    <g id="Page-1" stroke="none" stroke-width="1" fill="none" fill-rule="evenodd">
        <path d="M54,69 L54,13 C54,6.92528475 49.0747153,2 43,2 L13,2 C6.92528475,2 2,6.92528475 2,13 L2,69 L54,69 Z M54,71 L2,71 L2,76 C2,82.0747153 6.92528475,87 13,87 L43,87 C49.0747153,87 54,82.0747153 54,76 L54,71 Z M56,76 C56,83.1792847 50.1792847,89 43,89 L13,89 C5.82071525,89 0,83.1792847 0,76 L0,13 C0,5.82071525 5.82071525,0 13,0 L43,0 C50.1792847,0 56,5.82071525 56,13 L56,76 Z M13,57 C12.4477153,57 12,57.4477153 12,58 C12,58.5522847 12.4477153,59 13,59 L43,59 C43.5522847,59 44,58.5522847 44,58 C44,57.4477153 43.5522847,57 43,57 L13,57 Z M27.293358,24.2924287 C27.2935613,24.2922257 27.2937647,24.2920228 27.2939681,24.29182 C27.5789223,24.0076481 27.9550471,23.943231 28.2816074,24.0402742 C28.3551131,24.0617713 28.426636,24.0918742 28.4945887,24.130583 C28.5925281,24.1857882 28.6815949,24.2571318 28.7567335,24.3425199 L36.2071068,31.7928932 C36.5976311,32.1834175 36.5976311,32.8165825 36.2071068,33.2071068 C35.8165825,33.5976311 35.1834175,33.5976311 34.7928932,33.2071068 L29,27.4142136 L29,46 C29,46.5522847 28.5522847,47 28,47 C27.4477153,47 27,46.5522847 27,46 L27,27.4142136 L21.2071068,33.2071068 C20.8165825,33.5976311 20.1834175,33.5976311 19.7928932,33.2071068 C19.4023689,32.8165825 19.4023689,32.1834175 19.7928932,31.7928932 L27.2928932,24.2928932 C27.2930598,24.2927266 27.2932264,24.2925601 27.293393,24.2923937 Z M13,55 L43,55 C44.6568542,55 46,56.3431458 46,58 C46,59.6568542 44.6568542,61 43,61 L13,61 C11.3431458,61 10,59.6568542 10,58 C10,56.3431458 11.3431458,55 13,55 Z M46,8.5 C46,9.328 45.328,10 44.5,10 C43.672,10 43,9.328 43,8.5 C43,7.672 43.672,7 44.5,7 C45.328,7 46,7.672 46,8.5 Z M30,80.5 C30,80.2242847 29.7757153,80 29.5,80 C29.2242847,80 29,80.2242847 29,80.5 C29,80.7757153 29.2242847,81 29.5,81 C29.7757153,81 30,80.7757153 30,80.5 Z M32,80.5 C32,81.8802847 30.8802847,83 29.5,83 C28.1197153,83 27,81.8802847 27,80.5 C27,79.1197153 28.1197153,78 29.5,78 C30.8802847,78 32,79.1197153 32,80.5 Z M1,14 C0.44771525,14 0,13.5522847 0,13 C0,12.4477153 0.44771525,12 1,12 L55,12 C55.5522847,12 56,12.4477153 56,13 C56,13.5522847 55.5522847,14 55,14 L1,14 Z M25,8 C24.4477153,8 24,7.55228475 24,7 C24,6.44771525 24.4477153,6 25,6 L31,6 C31.5522847,6 32,6.44771525 32,7 C32,7.55228475 31.5522847,8 31,8 L25,8 Z" id="1_pr" fill="url(#linearGradient-1)" fill-rule="nonzero"></path>
    </g>
</svg>