<?xml version="1.0" encoding="UTF-8"?>
<svg width="135px" height="125px" viewBox="0 0 135 125" version="1.1" xmlns="http://www.w3.org/2000/svg" xmlns:xlink="http://www.w3.org/1999/xlink">
    <!-- Generator: Sketch 47.1 (45422) - http://www.bohemiancoding.com/sketch -->
    <title>2</title>
    <desc>Created with Sketch.</desc>
    <defs>
        <linearGradient x1="29.6296296%" y1="32%" x2="70.3703704%" y2="68%" id="linearGradient-1">
            <stop stop-color="#EC008C" offset="0%"></stop>
            <stop stop-color="#6FBAFF" offset="100%"></stop>
        </linearGradient>
    </defs>
    <g id="Page-1" stroke="none" stroke-width="1" fill="none" fill-rule="evenodd">
        <g id="Artboard" transform="translate(-453.000000, -16.000000)" fill-rule="nonzero" fill="url(#linearGradient-1)">
            <path d="M486.500019,138.999999 C503.896999,138.999999 518.000037,124.896964 518.000037,107.499988 C518.000037,90.1030128 503.896999,75.9999775 486.500019,75.9999775 C469.10304,75.9999775 455.000001,90.1030128 455.000001,107.499988 C455.000001,124.896964 469.10304,138.999999 486.500019,138.999999 Z M486.500019,141 C467.998469,141 453,126.001534 453,107.499988 C453,88.9984429 467.998469,73.9999768 486.500019,73.9999768 C505.001569,73.9999768 520.000038,88.9984429 520.000038,107.499988 C520.000038,126.001534 505.001569,141 486.500019,141 Z M567.000065,55.9999706 L567.000065,57.9999713 C565.585118,57.9999713 564.187598,57.8598904 562.821994,57.584136 L563.217862,55.6237044 C564.453334,55.8731816 565.718247,55.9999706 567.000065,55.9999706 Z M561.362741,55.1499914 L560.770132,57.0601793 C559.426948,56.6434756 558.132127,56.0927302 556.903067,55.4175633 L557.866012,53.6646399 C558.977568,54.275258 560.148352,54.7732445 561.362741,55.1499914 Z M556.236708,52.659502 L555.102289,54.30665 C553.94711,53.5110586 552.873688,52.6015174 551.898784,51.5928552 L553.336859,50.2029111 C554.219428,51.1160419 555.191144,51.9394043 556.236708,52.659502 Z M552.094564,48.7837265 L550.526493,50.0251594 C549.655532,48.9250364 548.896202,47.7403616 548.261192,46.4886688 L550.044794,45.5838104 C550.61925,46.7161433 551.306329,47.7880962 552.094564,48.7837265 Z M549.256179,43.8087715 L547.38909,44.5256974 C546.887399,43.2191457 546.517269,41.8623138 546.285836,40.4716537 L548.258704,40.1433302 C548.467982,41.400864 548.802603,42.627525 549.256179,43.8087715 Z M548.035981,38.1785588 L546.039708,38.3006316 C546.01377,37.876466 546.000524,37.450445 546.000065,37.0218888 C546.000053,36.0225533 546.066908,35.0501443 546.200459,34.0878674 L548.181473,34.3628049 C548.060594,35.2337727 548.000055,36.1143095 548.000065,37.0208044 C548.000481,37.4082891 548.012484,37.7943161 548.035981,38.1785588 Z M548.538594,32.4887675 L546.595356,32.0156581 C546.928327,30.6480237 547.397798,29.322024 547.9953,28.0547043 L549.804324,28.9076026 C549.26406,30.0535196 548.839628,31.2523085 548.538594,32.4887675 Z M550.707048,27.2197627 L548.993294,26.1887189 C549.716526,24.9865962 550.558742,23.8594853 551.506049,22.824598 L552.981309,24.1750094 C552.123801,25.111795 551.361512,26.1319437 550.707048,27.2197627 Z M554.392782,22.7850027 L553.065141,21.2892175 C554.114468,20.3578479 555.254403,19.5330155 556.467645,18.8283632 L557.472118,20.5578246 C556.374305,21.1954357 555.342604,21.9419524 554.392782,22.7850027 Z M559.11317,19.7088556 L558.282013,17.8897402 C559.556246,17.3075409 560.887796,16.8540168 562.259699,16.5374192 L562.709424,18.4862008 C561.46909,18.7724361 560.265302,19.1824445 559.11317,19.7088556 Z M564.648587,18.1439326 L564.403714,16.1589793 C565.246144,16.0550528 566.097927,16.0017696 566.957896,16.0000001 C567.543252,15.9999554 568.090049,16.0206207 568.638687,16.0629926 L568.484683,18.0570552 C567.987827,18.0186824 567.492436,17.9999599 566.960032,17.9999986 C566.182576,18.0016002 565.41119,18.0498541 564.648587,18.1439326 Z M570.372779,18.2982248 L570.725332,16.3295427 C572.112725,16.5779979 573.465004,16.9648611 574.765604,17.4827756 L574.025687,19.3408729 C572.849813,18.8726258 571.627289,18.5228832 570.372779,18.2982248 Z M575.761798,20.1361258 L576.685446,18.3621817 C577.930306,19.0103487 579.106969,19.7821033 580.197932,20.6645748 L578.940129,22.2195452 C577.952752,21.4208645 576.888001,20.7225112 575.761798,20.1361258 Z M580.404207,23.5341064 L581.815191,22.116669 C582.80961,23.1065597 583.7034,24.1935157 584.481942,25.3606421 L582.818142,26.4704945 C582.113509,25.414166 581.304431,24.4302307 580.404207,23.5341064 Z M583.773436,28.0666257 L585.537828,27.1248603 C586.198031,28.3617456 586.733066,29.6630084 587.13354,31.0113083 L585.216322,31.5807635 C584.854255,30.3617701 584.370492,29.1852077 583.773436,28.0666257 Z M585.676102,33.4867622 L587.642067,33.1193562 C587.875924,34.370708 587.99633,35.6476566 587.999995,36.9415741 C588.000076,37.1117252 587.999182,37.2336664 587.997033,37.360988 L585.997317,37.3272476 C585.999259,37.2121182 586.00007,37.1016244 585.999998,36.9448834 C585.996681,35.7748357 585.887691,34.6189623 585.676102,33.4867622 Z M585.871285,39.2248674 L587.857835,39.4564381 C587.694448,40.8580699 587.39147,42.230907 586.955187,43.5590004 L585.055084,42.93481 C585.44954,41.7340432 585.723492,40.4927264 585.871285,39.2248674 Z M584.351376,44.7537455 L586.176864,45.5708119 C585.603237,46.8524068 584.902085,48.0723966 584.085232,49.2131623 L582.459127,48.0487797 C583.198256,47.0165582 583.832557,45.9128881 584.351376,44.7537455 Z M581.271663,49.5431501 L582.773374,50.8640848 C581.846893,51.9173584 580.817243,52.8762737 579.700741,53.7253526 L578.490088,52.133397 C579.500766,51.3647951 580.432922,50.4966763 581.271663,49.5431501 Z M576.94698,53.1915089 L577.995573,54.8945811 C576.801191,55.6299703 575.535419,56.2443399 574.215816,56.7271481 L573.528619,54.8489141 C574.72183,54.4123491 575.866564,53.8567284 576.94698,53.1915089 Z M571.659338,55.4247451 L572.148152,57.3640914 C570.795093,57.7051308 569.40503,57.9111072 567.993081,57.9768873 L567.900006,55.9790535 C569.178166,55.9195064 570.435663,55.7331734 571.659338,55.4247451 Z M536.000047,69.9999754 L527.000042,69.9999754 C526.447757,69.9999754 526.000042,69.55226 526.000042,68.9999751 C526.000042,68.4476901 526.447757,67.9999747 527.000042,67.9999747 L538.000049,67.9999747 L538.000049,78.9999785 C538.000049,79.5522635 537.552333,79.9999789 537.000048,79.9999789 C536.447763,79.9999789 536.000047,79.5522635 536.000047,78.9999785 L536.000047,69.9999754 Z M477.707121,103.29288 C477.316596,102.902356 476.683431,102.902356 476.292907,103.29288 C475.902382,103.683405 475.902382,104.31657 476.292907,104.707094 L487.000019,115.414205 L504.707136,97.7070918 C505.097661,97.3165674 505.097661,96.6834022 504.707136,96.2928777 C504.316612,95.9023533 503.683446,95.9023533 503.292922,96.2928777 L487.000019,112.585777 L477.707121,103.29288 Z" id="2"></path>
        </g>
    </g>
</svg>