<?xml version="1.0" encoding="UTF-8"?>
<svg width="89px" height="89px" viewBox="0 0 89 89" version="1.1" xmlns="http://www.w3.org/2000/svg" xmlns:xlink="http://www.w3.org/1999/xlink">
    <!-- Generator: Sketch 48.1 (47250) - http://www.bohemiancoding.com/sketch -->
    <title>2_cb</title>
    <desc>Created with Sketch.</desc>
    <defs></defs>
    <g id="Page-1" stroke="none" stroke-width="1" fill="none" fill-rule="evenodd">
        <path d="M51,47 L43,47 C42.4477153,47 42,46.5522847 42,46 C42,45.4477153 42.4477153,45 43,45 L51,45 L51,31 C51,30.4477153 51.4477153,30 52,30 C52.5522847,30 53,30.4477153 53,31 L53,49 C53,49.5522847 52.5522847,50 52,50 C51.4477153,50 51,49.5522847 51,49 L51,47 Z M55.7071068,0.292893219 C55.8880712,0.473857625 56,0.723857625 56,1 L56,25 C56,25.5522847 55.5522847,26 55,26 C54.4477153,26 54,25.5522847 54,25 L54,2 L34,2 C33.4477153,2 33,1.55228475 33,1 C33,0.44771525 33.4477153,0 34,0 L55,0 C55.2761424,0 55.5261424,0.111928813 55.7071068,0.292893219 Z M11,43 L11,48 L28,48 C28.5522847,48 29,48.4477153 29,49 C29,49.5522847 28.5522847,50 28,50 L10,50 C9.44771525,50 9,49.5522847 9,49 L9,44 L4,44 C3.44771525,44 3,43.5522847 3,43 C3,42.4477153 3.44771525,42 4,42 L10,42 C10.5522847,42 11,42.4477153 11,43 Z M1,29 C0.44771525,29 0,28.5522847 0,28 L0,1 C0,0.44771525 0.44771525,0 1,0 L28,0 C28.5522847,0 29,0.44771525 29,1 L29,28 C29,28.5522847 28.5522847,29 28,29 L1,29 Z M2,27 L27,27 L27,2 L2,2 L2,27 Z M87,87 L87,61 C87,60.4477153 87.4477153,60 88,60 C88.5522847,60 89,60.4477153 89,61 L89,88 C89,88.5522847 88.5522847,89 88,89 L79,89 C78.4477153,89 78,88.5522847 78,88 C78,87.4477153 78.4477153,87 79,87 L87,87 Z M73,72 C73.5522847,72 74,72.4477153 74,73 C74,73.5522847 73.5522847,74 73,74 L64,74 C63.4477153,74 63,73.5522847 63,73 C63,72.4477153 63.4477153,72 64,72 L73,72 Z M52,60 C52.5522847,60 53,60.4477153 53,61 C53,61.5522847 52.5522847,62 52,62 L46,62 C45.4477153,62 45,61.5522847 45,61 C45,60.4477153 45.4477153,60 46,60 L52,60 Z M63,61 C63,60.4477153 63.4477153,60 64,60 C64.5522847,60 65,60.4477153 65,61 L65,64 C65,64.5522847 64.5522847,65 64,65 C63.4477153,65 63,64.5522847 63,64 L63,61 Z M72,61 C72,60.4477153 72.4477153,60 73,60 C73.5522847,60 74,60.4477153 74,61 L74,64 C74,64.5522847 73.5522847,65 73,65 C72.4477153,65 72,64.5522847 72,64 L72,61 Z M42,70 C42,69.4477153 42.4477153,69 43,69 C43.5522847,69 44,69.4477153 44,70 L44,73 C44,73.5522847 43.5522847,74 43,74 C42.4477153,74 42,73.5522847 42,73 L42,70 Z M42,7 C42,6.44771525 42.4477153,6 43,6 C43.5522847,6 44,6.44771525 44,7 L44,13 C44,13.5522847 43.5522847,14 43,14 C42.4477153,14 42,13.5522847 42,13 L42,7 Z M45,19 C45,18.4477153 45.4477153,18 46,18 C46.5522847,18 47,18.4477153 47,19 L47,25 C47,25.5522847 46.5522847,26 46,26 C45.4477153,26 45,25.5522847 45,25 L45,19 Z M87,40 C87,39.4477153 87.4477153,39 88,39 C88.5522847,39 89,39.4477153 89,40 L89,43 C89,43.5522847 88.5522847,44 88,44 C87.4477153,44 87,43.5522847 87,43 L87,40 Z M63,40 C63,39.4477153 63.4477153,39 64,39 C64.5522847,39 65,39.4477153 65,40 L65,43 C65,43.5522847 64.5522847,44 64,44 C63.4477153,44 63,43.5522847 63,43 L63,40 Z M7,23 C6.44771525,23 6,22.5522847 6,22 L6,7 C6,6.44771525 6.44771525,6 7,6 L22,6 C22.5522847,6 23,6.44771525 23,7 L23,22 C23,22.5522847 22.5522847,23 22,23 L7,23 Z M8,21 L21,21 L21,8 L8,8 L8,21 Z M61,29 C60.4477153,29 60,28.5522847 60,28 L60,1 C60,0.44771525 60.4477153,0 61,0 L88,0 C88.5522847,0 89,0.44771525 89,1 L89,28 C89,28.5522847 88.5522847,29 88,29 L61,29 Z M62,27 L87,27 L87,2 L62,2 L62,27 Z M67,23 C66.4477153,23 66,22.5522847 66,22 L66,7 C66,6.44771525 66.4477153,6 67,6 L82,6 C82.5522847,6 83,6.44771525 83,7 L83,22 C83,22.5522847 82.5522847,23 82,23 L67,23 Z M68,21 L81,21 L81,8 L68,8 L68,21 Z M1,89 C0.44771525,89 0,88.5522847 0,88 L0,61 C0,60.4477153 0.44771525,60 1,60 L28,60 C28.5522847,60 29,60.4477153 29,61 L29,88 C29,88.5522847 28.5522847,89 28,89 L1,89 Z M2,87 L27,87 L27,62 L2,62 L2,87 Z M7,83 C6.44771525,83 6,82.5522847 6,82 L6,67 C6,66.4477153 6.44771525,66 7,66 L22,66 C22.5522847,66 23,66.4477153 23,67 L23,82 C23,82.5522847 22.5522847,83 22,83 L7,83 Z M8,81 L21,81 L21,68 L8,68 L8,81 Z" id="2_cb" fill="#FD002B" fill-rule="nonzero"></path>
    </g>
</svg>