<?xml version="1.0" encoding="UTF-8"?>
<svg width="89px" height="74px" viewBox="0 0 89 74" version="1.1" xmlns="http://www.w3.org/2000/svg" xmlns:xlink="http://www.w3.org/1999/xlink">
    <!-- Generator: Sketch 48.1 (47250) - http://www.bohemiancoding.com/sketch -->
    <title>2_pr</title>
    <desc>Created with Sketch.</desc>
    <defs>
        <linearGradient x1="0%" y1="0%" x2="100%" y2="100%" id="linearGradient-1">
            <stop stop-color="#EC008C" offset="0%"></stop>
            <stop stop-color="#6FBAFF" offset="100%"></stop>
        </linearGradient>
    </defs>
    <g id="Page-1" stroke="none" stroke-width="1" fill="none" fill-rule="evenodd">
        <path d="M77.9985,50.5003 C77.9985,43.5975847 72.4012153,38.0003 65.4985,38.0003 C58.5957847,38.0003 52.9985,43.5975847 52.9985,50.5003 C52.9985,57.4030153 58.5957847,63.0003 65.4985,63.0003 C72.4012153,63.0003 77.9985,57.4030153 77.9985,50.5003 Z M76.3849841,60.0777186 C76.5015401,60.1264952 76.6107336,60.1983201 76.7056068,60.2931932 L88.7056068,72.2931932 C89.0961311,72.6837175 89.0961311,73.3168825 88.7056068,73.7074068 C88.3150825,74.0979311 87.6819175,74.0979311 87.2913932,73.7074068 L75.2913932,61.7074068 C75.1965201,61.6125336 75.1246952,61.5033401 75.0759186,61.3867841 C72.5213972,63.6359512 69.1690809,65.0003 65.4985,65.0003 C57.4912153,65.0003 50.9985,58.5075847 50.9985,50.5003 C50.9985,42.4930153 57.4912153,36.0003 65.4985,36.0003 C73.5057847,36.0003 79.9985,42.4930153 79.9985,50.5003 C79.9985,54.1708809 78.6341512,57.5231972 76.3849841,60.0777186 Z M81.2689361,39.8768758 C80.7222428,39.955265 80.2155133,39.5756294 80.1371242,39.0289361 C80.058735,38.4822428 80.4383706,37.9755133 80.9850639,37.8971242 C84.0828694,37.4529366 87,33.0204486 87,29.5 C87,25.6789767 83.734071,20.999 80.434,20.999 C78.9858066,20.999 78.2711334,21.4774596 76.8303358,23.0992185 C74.9480413,25.2179186 73.768742,26 71.5,26 C68.912354,26 68.5664258,22.8349058 69.336803,17.1486216 C69.8228604,13.5609497 70.7106247,9.42868077 71.9425867,4.4755501 C72.2554786,3.21800375 71.298617,2 70,2 L52.036,2 C51.3039608,2 50.9591952,2.88921441 51.5072913,3.41927193 C53.6681256,5.50964426 54.953,7.87774611 54.953,10.501 C54.953,14.8954207 51.1754599,17 44.5,17 C37.821104,17 34.041,14.8954585 34.041,10.501 C34.041,7.87735673 35.328387,5.50923117 37.4919111,3.42004442 C38.0385917,2.89001397 37.6929956,2 36.961,2 L19.003,2 C17.7035432,2 16.7447235,3.21881613 17.0574332,4.47563008 C18.2872922,9.42030577 19.1761846,13.5598737 19.6620836,17.1487072 C20.431992,22.8352231 20.0864171,26 17.5,26 C15.2301079,26 14.0497277,25.2176686 12.2244038,23.1637943 C10.7256668,21.4773812 10.0108114,20.999 8.563,20.999 C5.26344243,20.999 2,25.6780325 2,29.5 C2,33.3219675 5.26344243,38.001 8.563,38.001 C10.0108114,38.001 10.7256668,37.5226188 12.1660495,35.9018737 C14.0497277,33.7823314 15.2301079,33 17.5,33 C20.0864257,33 20.4320023,36.1653249 19.6620852,41.8524062 C19.1760846,45.4423051 18.2859677,49.5873114 17.0575027,54.5240901 C16.7447393,55.7831124 17.7025604,57 19.003,57 L36.961,57 C37.6929956,57 38.0385917,56.109986 37.4933591,55.5813566 C35.328387,53.4907688 34.041,51.1226433 34.041,48.499 C34.041,44.1045415 37.821104,42 44.5,42 C45.5324423,42 46.5203614,42.0661655 47.5560053,42.1934705 C48.1041642,42.2608522 48.4939111,42.7598464 48.4265295,43.3080053 C48.3591478,43.8561642 47.8601536,44.2459111 47.3119947,44.1785295 C46.3539058,44.0607577 45.4467301,44 44.5,44 C38.7787843,44 36.041,45.5242387 36.041,48.499 C36.041,50.4972072 37.0725712,52.3947641 38.8840889,54.1440444 C40.7075848,55.9120023 39.5085026,59 36.961,59 L19.003,59 C16.4057619,59 14.4895823,56.5655419 15.1165931,54.0415246 C16.3286711,49.170599 17.2065215,45.082714 17.6801648,41.5840938 C17.9817089,39.356704 18.0777888,37.5834495 17.9452038,36.3690308 C17.8809988,35.7809427 17.765264,35.3568217 17.6238447,35.1213454 C15.9532671,35 15.1989115,35.4999711 13.7193462,37.1647943 C11.8737317,39.2415201 10.7388244,40.001 8.563,40.001 C3.9729812,40.001 0,34.3046506 0,29.5 C0,24.6953494 3.9729812,18.999 8.563,18.999 C10.7388244,18.999 11.8737317,19.7584799 13.6609962,21.7695427 C15.1989115,23.5000289 15.9532671,24 17.5,24 C17.7652836,23.6433148 17.8810057,23.2193173 17.9452058,22.631373 C18.0777869,21.417194 17.9817101,19.6442339 17.6801664,17.4170428 C17.2066201,13.9194466 16.3299602,9.83684508 15.1165867,4.9584499 C14.4892212,2.43700012 16.4063632,0 19.003,0 L36.961,0 C39.5085026,0 40.7075848,3.08799769 38.8826409,4.85735663 C37.0725712,6.6052359 36.041,8.50279279 36.041,10.501 C36.041,13.4757613 38.7787843,15 44.5,15 C50.2177752,15 52.953,13.4761253 52.953,10.501 C52.953,8.50219941 51.9233105,6.60441895 50.1168211,4.85683679 C48.2894688,3.08962516 49.4873761,0 52.036,0 L70,0 C72.5964518,0 74.5108211,2.43682987 73.8834332,4.95836992 C72.6679544,9.84522963 71.7923934,13.9206959 71.318697,17.4171284 C71.0169538,19.6443462 70.9208263,21.4172036 71.0535178,22.6312741 C71.1177679,23.2191351 71.233567,23.6430411 71.3750509,23.8783731 C73.045258,24 73.7986747,23.5003532 75.2779175,21.835331 C77.1228696,19.7586504 78.2575563,18.999 80.434,18.999 C85.0242167,18.999 89,24.6961761 89,29.5 C89,33.9238583 85.4795107,39.2731307 81.2689361,39.8768758 Z" id="2_pr" fill="url(#linearGradient-1)" fill-rule="nonzero"></path>
    </g>
</svg>