<?xml version="1.0" encoding="UTF-8"?>
<svg width="118px" height="117px" viewBox="0 0 118 117" version="1.1" xmlns="http://www.w3.org/2000/svg" xmlns:xlink="http://www.w3.org/1999/xlink">
    <!-- Generator: Sketch 47.1 (45422) - http://www.bohemiancoding.com/sketch -->
    <title>3</title>
    <desc>Created with Sketch.</desc>
    <defs>
        <linearGradient x1="0%" y1="0%" x2="100%" y2="100%" id="linearGradient-1">
            <stop stop-color="#EC008C" offset="0%"></stop>
            <stop stop-color="#6FBAFF" offset="100%"></stop>
        </linearGradient>
    </defs>
    <g id="Page-1" stroke="none" stroke-width="1" fill="none" fill-rule="evenodd">
        <g id="Artboard-2" transform="translate(-932.000000, -74.000000)" fill="url(#linearGradient-1)">
            <path d="M988.786967,170.294646 C986.068476,170.762751 983.299244,171 980.5,171 C953.71419,171 932,149.28581 932,122.5 C932,95.7141896 953.71419,74 980.5,74 C1007.28581,74 1029,95.7141896 1029,122.5 C1029,124.431507 1028.88704,126.349281 1028.663,128.2467 C1029.97269,129.037461 1031.08807,130.186024 1031.84639,131.639511 C1033.02047,133.889891 1035.18141,135.459905 1037.68445,135.881116 C1042.3205,136.661264 1045.47911,141.008729 1044.78846,145.658947 C1044.41558,148.169649 1045.24098,150.709985 1047.01841,152.522007 C1050.31048,155.878158 1050.31048,161.25192 1047.01841,164.608071 C1045.24098,166.420092 1044.41558,168.960429 1044.78846,171.471131 C1045.47911,176.121348 1042.3205,180.468813 1037.68445,181.248962 C1035.18141,181.670173 1033.02047,183.240187 1031.84639,185.490566 C1029.67181,189.658625 1024.56105,191.319209 1020.35186,189.225365 C1018.07927,188.094877 1015.4082,188.094877 1013.13561,189.225365 C1008.92641,191.319209 1003.81566,189.658625 1001.64108,185.490566 C1000.467,183.240187 998.30606,181.670173 995.803011,181.248962 C991.166969,180.468813 988.008351,176.121348 988.699001,171.471131 C988.757281,171.078729 988.786289,170.685602 988.786967,170.294646 Z M988.542771,168.307159 C988.196643,166.929624 987.489855,165.648736 986.469058,164.608071 C983.176981,161.25192 983.176981,155.878158 986.469058,152.522007 C988.246485,150.709985 989.071891,148.169649 988.699001,145.658947 C988.008351,141.008729 991.166969,136.661264 995.803011,135.881116 C998.30606,135.459905 1000.467,133.889891 1001.64108,131.639511 C1003.81566,127.471452 1008.92641,125.810869 1013.13561,127.904712 C1015.4082,129.035201 1018.07927,129.035201 1020.35186,127.904712 C1022.41741,126.877212 1024.70007,126.753817 1026.74633,127.387174 C1026.91502,125.771679 1027,124.141181 1027,122.5 C1027,96.8187591 1006.18124,76 980.5,76 C954.818759,76 934,96.8187591 934,122.5 C934,148.181241 954.818759,169 980.5,169 C983.218031,169 985.905696,168.766908 988.542771,168.307159 Z M1012.24484,187.434685 C1015.07849,186.025104 1018.40898,186.025104 1021.24262,187.434685 C1024.47631,189.043264 1028.4026,187.767533 1030.07321,184.565454 C1031.53714,181.759506 1034.23157,179.80189 1037.35256,179.276692 C1040.91417,178.677349 1043.34075,175.337442 1042.81016,171.764948 C1042.34522,168.63441 1043.3744,165.466921 1045.59063,163.207552 C1048.11974,160.629215 1048.11974,156.500863 1045.59063,153.922526 C1043.3744,151.663156 1042.34522,148.495668 1042.81016,145.365129 C1043.34075,141.792636 1040.91417,138.452729 1037.35256,137.853385 C1034.23157,137.328187 1031.53714,135.370572 1030.07321,132.564624 C1028.4026,129.362544 1024.47631,128.086813 1021.24262,129.695393 C1018.40898,131.104974 1015.07849,131.104974 1012.24484,129.695393 C1009.01116,128.086813 1005.08486,129.362544 1003.41426,132.564624 C1001.95032,135.370572 999.255898,137.328187 996.134903,137.853385 C992.573299,138.452729 990.146714,141.792636 990.677301,145.365129 C991.142249,148.495668 990.113069,151.663156 987.896835,153.922526 C985.367722,156.500863 985.367722,160.629215 987.896835,163.207552 C990.113069,165.466921 991.142249,168.63441 990.677301,171.764948 C990.146714,175.337442 992.573299,178.677349 996.134903,179.276692 C999.255898,179.80189 1001.95032,181.759506 1003.41426,184.565454 C1005.08486,187.767533 1009.01116,189.043264 1012.24484,187.434685 Z M1011.35408,185.643202 C1009.09591,186.766517 1006.35407,185.875639 1005.18744,183.639539 C1003.43365,180.278023 1000.20574,177.932806 996.466794,177.30362 C993.979629,176.885082 992.285078,174.552733 992.655601,172.057963 C993.212607,168.307588 991.979654,164.512948 989.324612,161.806231 C987.558463,160.005707 987.558463,157.122766 989.324612,155.322242 C991.979654,152.615525 993.212607,148.820884 992.655601,145.07051 C992.285078,142.575739 993.979629,140.243391 996.466794,139.824853 C1000.20574,139.195667 1003.43365,136.85045 1005.18744,133.488934 C1006.35407,131.252834 1009.09591,130.361956 1011.35408,131.485271 C1014.74877,133.173944 1018.73869,133.173944 1022.13339,131.485271 C1024.39156,130.361956 1027.1334,131.252834 1028.30003,133.488934 C1030.05382,136.85045 1033.28173,139.195667 1037.02067,139.824853 C1039.50784,140.243391 1041.20239,142.575739 1040.83186,145.07051 C1040.27486,148.820884 1041.50781,152.615525 1044.16285,155.322242 C1045.929,157.122766 1045.929,160.005707 1044.16285,161.806231 C1041.50781,164.512948 1040.27486,168.307588 1040.83186,172.057963 C1041.20239,174.552733 1039.50784,176.885082 1037.02067,177.30362 C1033.28173,177.932806 1030.05382,180.278023 1028.30003,183.639539 C1027.1334,185.875639 1024.39156,186.766517 1022.13339,185.643202 C1018.73869,183.954528 1014.74877,183.954528 1011.35408,185.643202 Z M1010.46331,183.852521 C1014.41906,181.884755 1019.06841,181.884755 1023.02415,183.852521 C1024.30681,184.490572 1025.86419,183.984547 1026.52685,182.714426 C1028.57049,178.797342 1032.33189,176.064523 1036.68878,175.33135 C1038.10151,175.093618 1039.06402,173.768827 1038.85356,172.35178 C1038.2045,167.981569 1039.64123,163.559777 1042.73508,160.405712 C1043.73826,159.383002 1043.73826,157.745471 1042.73508,156.722761 C1039.64123,153.568696 1038.2045,149.146903 1038.85356,144.776693 C1039.06402,143.359646 1038.10151,142.034855 1036.68878,141.797123 C1032.33189,141.063949 1028.57049,138.331131 1026.52685,134.414047 C1025.86419,133.143926 1024.30681,132.637901 1023.02415,133.275952 C1019.06841,135.243718 1014.41906,135.243718 1010.46331,133.275952 C1009.18066,132.637901 1007.62327,133.143926 1006.96062,134.414047 C1004.91698,138.331131 1001.15558,141.063949 996.798686,141.797123 C995.385958,142.034855 994.423442,143.359646 994.633902,144.776693 C995.282965,149.146903 993.846238,153.568696 990.752389,156.722761 C989.749204,157.745471 989.749204,159.383002 990.752389,160.405712 C993.846238,163.559777 995.282965,167.981569 994.633902,172.35178 C994.423442,173.768827 995.385958,175.093618 996.798686,175.33135 C1001.15558,176.064523 1004.91698,178.797342 1006.96062,182.714426 C1007.62327,183.984547 1009.18066,184.490572 1010.46331,183.852521 Z M973,111.000302 C973,110.45657 973.147774,109.923061 973.427521,109.456815 C974.279966,108.036074 976.122746,107.575379 977.543487,108.427823 L996.656186,119.895443 C997.078435,120.148792 997.431828,120.502185 997.685178,120.924434 C998.537622,122.345175 998.076927,124.187956 996.656186,125.0404 L977.543487,136.50802 C977.077241,136.787767 976.543732,136.935541 976,136.935541 C974.343146,136.935541 973,135.592395 973,133.935541 L973,111.000302 Z M975,111.000302 L975,133.935541 C975,134.487825 975.447715,134.935541 976,134.935541 C976.181244,134.935541 976.35908,134.886283 976.514496,134.793034 L995.627194,123.325414 C996.100775,123.041266 996.25434,122.427006 995.970192,121.953426 C995.885742,121.812676 995.767944,121.694878 995.627194,121.610429 L976.514496,110.142809 C976.040915,109.858661 975.426655,110.012226 975.142507,110.485807 C975.049258,110.641222 975,110.819058 975,111.000302 Z M1026,163.707495 C1026,162.203331 1027.29008,161 1028.77863,161 C1030.26718,161 1031.55725,162.203331 1031.55725,163.707495 C1031.55725,165.311936 1030.26718,166.515267 1028.77863,166.515267 C1027.29008,166.515267 1026,165.311936 1026,163.707495 Z M1009.57252,150 L1019.49618,150 C1023.46565,150 1026.44275,152.707495 1026.44275,156.718598 C1026.44275,160.729702 1023.46565,163.236641 1019.49618,163.236641 L1014.03817,163.236641 L1014.03817,166.846634 L1009.57252,166.846634 L1009.57252,163.236641 L1006,163.236641 L1006,159.12526 L1009.57252,159.12526 L1009.57252,150 Z M1014.03817,154.011103 L1014.03817,159.12526 L1019.29771,159.12526 C1020.8855,159.12526 1021.9771,158.32304 1021.9771,156.718598 C1021.9771,155.114157 1020.8855,154.011103 1019.29771,154.011103 L1014.03817,154.011103 Z" id="3"></path>
        </g>
    </g>
</svg>