<?xml version="1.0" encoding="UTF-8"?>
<svg width="56px" height="89px" viewBox="0 0 56 89" version="1.1" xmlns="http://www.w3.org/2000/svg" xmlns:xlink="http://www.w3.org/1999/xlink">
    <!-- Generator: Sketch 48.1 (47250) - http://www.bohemiancoding.com/sketch -->
    <title>3_cb</title>
    <desc>Created with Sketch.</desc>
    <defs></defs>
    <g id="Page-1" stroke="none" stroke-width="1" fill="none" fill-rule="evenodd">
        <path d="M43,47 L31,47 C30.4477153,47 30,46.5522847 30,46 C30,45.4477153 30.4477153,45 31,45 L42,45 L42,40 C42,39.4477153 42.4477153,39 43,39 C43.5522847,39 44,39.4477153 44,40 L44,46 C44,46.5522847 43.5522847,47 43,47 Z M15,41 L13,41 C12.4477153,41 12,40.5522847 12,40 C12,39.4477153 12.4477153,39 13,39 L16,39 C16.5522847,39 17,39.4477153 17,40 L17,42 L22,42 C22.5522847,42 23,42.4477153 23,43 C23,43.2761424 22.8880712,43.5261424 22.7071068,43.7071068 C22.5261424,43.8880712 22.2761424,44 22,44 L16,44 C15.4477153,44 15,43.5522847 15,43 C15,42.4477153 15.4477153,42 16,42 L22,42 C22.5522847,42 23,42.4477153 23,43 C23,43.2761424 22.8880712,43.5261424 22.7071068,43.7071068 C22.5261424,43.8880712 22.2761424,44 22,44 L16,44 C15.4477153,44 15,43.5522847 15,43 L15,41 Z M54,69 L54,14 L2,14 L2,69 L54,69 Z M54,71 L2,71 L2,76 C2,82.0747153 6.92528475,87 13,87 L43,87 C49.0747153,87 54,82.0747153 54,76 L54,71 Z M2.04485223,12 L53.9551478,12 C53.4498498,6.39383964 48.7376276,2 43,2 L13,2 C7.26237243,2 2.5501502,6.39383964 2.04485223,12 Z M56,76 C56,83.1792847 50.1792847,89 43,89 L13,89 C5.82071525,89 0,83.1792847 0,76 L0,13 C0,5.82071525 5.82071525,0 13,0 L43,0 C50.1792847,0 56,5.82071525 56,13 L56,76 Z M32,80.5 C32,81.8802847 30.8802847,83 29.5,83 C28.1197153,83 27,81.8802847 27,80.5 C27,79.1197153 28.1197153,78 29.5,78 C30.8802847,78 32,79.1197153 32,80.5 Z M46,8.5 C46,9.328 45.328,10 44.5,10 C43.672,10 43,9.328 43,8.5 C43,7.672 43.672,7 44.5,7 C45.328,7 46,7.672 46,8.5 Z M25,8 C24.4477153,8 24,7.55228475 24,7 C24,6.44771525 24.4477153,6 25,6 L31,6 C31.5522847,6 32,6.44771525 32,7 C32,7.55228475 31.5522847,8 31,8 L25,8 Z M13,35 C12.4477153,35 12,34.5522847 12,34 L12,25 C12,24.4477153 12.4477153,24 13,24 L22,24 C22.5522847,24 23,24.4477153 23,25 L23,34 C23,34.5522847 22.5522847,35 22,35 L13,35 Z M14,33 L21,33 L21,26 L14,26 L14,33 Z M13,59 C12.4477153,59 12,58.5522847 12,58 L12,49 C12,48.4477153 12.4477153,48 13,48 L22,48 C22.5522847,48 23,48.4477153 23,49 L23,58 C23,58.5522847 22.5522847,59 22,59 L13,59 Z M14,57 L21,57 L21,50 L14,50 L14,57 Z M30,52 C30,51.4477153 30.4477153,51 31,51 C31.5522847,51 32,51.4477153 32,52 L32,58 C32,58.5522847 31.5522847,59 31,59 C30.4477153,59 30,58.5522847 30,58 L30,52 Z M27,25 C27,24.4477153 27.4477153,24 28,24 C28.5522847,24 29,24.4477153 29,25 L29,31 C29,31.5522847 28.5522847,32 28,32 C27.4477153,32 27,31.5522847 27,31 L27,25 Z M40,59 C39.4477153,59 39,58.5522847 39,58 C39,57.4477153 39.4477153,57 40,57 L43,57 C43.5522847,57 44,57.4477153 44,58 C44,58.5522847 43.5522847,59 43,59 L40,59 Z M28,38 C27.4477153,38 27,37.5522847 27,37 C27,36.4477153 27.4477153,36 28,36 L31,36 C31.5522847,36 32,36.4477153 32,37 C32,37.5522847 31.5522847,38 31,38 L28,38 Z M34,35 C33.4477153,35 33,34.5522847 33,34 L33,25 C33,24.4477153 33.4477153,24 34,24 L43,24 C43.5522847,24 44,24.4477153 44,25 L44,34 C44,34.5522847 43.5522847,35 43,35 L34,35 Z M35,33 L42,33 L42,26 L35,26 L35,33 Z" id="3_cb" fill="#FD002B" fill-rule="nonzero"></path>
    </g>
</svg>