<?xml version="1.0" encoding="UTF-8"?>
<svg width="89px" height="89px" viewBox="0 0 89 89" version="1.1" xmlns="http://www.w3.org/2000/svg" xmlns:xlink="http://www.w3.org/1999/xlink">
    <!-- Generator: Sketch 48.1 (47250) - http://www.bohemiancoding.com/sketch -->
    <title>3_pr</title>
    <desc>Created with Sketch.</desc>
    <defs>
        <linearGradient x1="0%" y1="0%" x2="100%" y2="100%" id="linearGradient-1">
            <stop stop-color="#EC008C" offset="0%"></stop>
            <stop stop-color="#6FBAFF" offset="100%"></stop>
        </linearGradient>
    </defs>
    <g id="Page-1" stroke="none" stroke-width="1" fill="none" fill-rule="evenodd">
        <path d="M69,35.5 C69,16.9973343 54.0017649,2 35.5,2 C16.9962847,2 2,16.9962847 2,35.5 C2,54.0037153 16.9962847,69 35.5,69 C54.0017649,69 69,54.0026657 69,35.5 Z M71,35.5 C71,55.1072621 55.1063075,71 35.5,71 C15.8917153,71 0,55.1082847 0,35.5 C0,15.8917153 15.8917153,0 35.5,0 C55.1063075,0 71,15.8927379 71,35.5 Z M31,47.5857864 L54.2928932,24.2928932 C54.6834175,23.9023689 55.3165825,23.9023689 55.7071068,24.2928932 C56.0976311,24.6834175 56.0976311,25.3165825 55.7071068,25.7071068 L31.7071068,49.7071068 C31.5118446,49.9023689 31.2559223,50 31,50 C30.7440777,50 30.4881554,49.9023689 30.2928932,49.7071068 L18.2928932,37.7071068 C17.9023689,37.3165825 17.9023689,36.6834175 18.2928932,36.2928932 C18.6834175,35.9023689 19.3165825,35.9023689 19.7071068,36.2928932 L31,47.5857864 Z M88.7071068,87.2928932 C89.0976311,87.6834175 89.0976311,88.3165825 88.7071068,88.7071068 C88.3165825,89.0976311 87.6834175,89.0976311 87.2928932,88.7071068 L60.2928932,61.7071068 C59.9023689,61.3165825 59.9023689,60.6834175 60.2928932,60.2928932 C60.6834175,59.9023689 61.3165825,59.9023689 61.7071068,60.2928932 L88.7071068,87.2928932 Z" id="3_pr" fill="url(#linearGradient-1)" fill-rule="nonzero"></path>
    </g>
</svg>