<?xml version="1.0" encoding="UTF-8"?>
<svg width="92px" height="120px" viewBox="0 0 92 120" version="1.1" xmlns="http://www.w3.org/2000/svg" xmlns:xlink="http://www.w3.org/1999/xlink">
    <!-- Generator: Sketch 47.1 (45422) - http://www.bohemiancoding.com/sketch -->
    <title>4</title>
    <desc>Created with Sketch.</desc>
    <defs>
        <linearGradient x1="0%" y1="0%" x2="100%" y2="100%" id="linearGradient-1">
            <stop stop-color="#EC008C" offset="0%"></stop>
            <stop stop-color="#6FBAFF" offset="100%"></stop>
        </linearGradient>
    </defs>
    <g id="Page-1" stroke="none" stroke-width="1" fill="none" fill-rule="evenodd">
        <g id="Artboard-2" transform="translate(-716.000000, -62.000000)" fill-rule="nonzero" fill="url(#linearGradient-1)">
            <path d="M783,70 L799,70 C803.970563,70 808,74.0294373 808,79 L808,173 C808,177.970563 803.970563,182 799,182 L725,182 C720.029437,182 716,177.970563 716,173 L716,79 C716,74.0294373 720.029437,70 725,70 L741,70 L741,69 C741,67.3431458 742.343146,66 744,66 L753.999208,66 C755.868829,63.5087215 758.807112,62 762,62 C765.192888,62 768.131171,63.5087215 770.000792,66 L780,66 C781.656854,66 783,67.3431458 783,69 L783,70 Z M741,72 L725,72 C721.134007,72 718,75.1340068 718,79 L718,173 C718,176.865993 721.134007,180 725,180 L799,180 C802.865993,180 806,176.865993 806,173 L806,79 C806,75.1340068 802.865993,72 799,72 L783,72 L783,85 C783,86.6568542 781.656854,88 780,88 L744,88 C742.343146,88 741,86.6568542 741,85 L741,72 Z M744,68 C743.447715,68 743,68.4477153 743,69 L743,85 C743,85.5522847 743.447715,86 744,86 L780,86 C780.552285,86 781,85.5522847 781,85 L781,69 C781,68.4477153 780.552285,68 780,68 L768.950473,68 L768.653442,67.5562596 C767.176883,65.3503949 764.703758,64 762,64 C759.296242,64 756.823117,65.3503949 755.346558,67.5562596 L755.049527,68 L744,68 Z M777.564473,165.508894 C777.202488,164.815072 776.536242,164.331015 775.764518,164.20115 C774.274391,163.950393 773.259141,162.553022 773.481132,161.058339 C773.596098,160.284255 773.341615,159.501035 772.79361,158.942365 C771.735463,157.863623 771.735463,156.136377 772.79361,155.057635 C773.341615,154.498965 773.596098,153.715745 773.481132,152.941661 C773.259141,151.446978 774.274391,150.049607 775.764518,149.79885 C776.536242,149.668985 777.202488,149.184928 777.564473,148.491106 C778.263432,147.151399 779.906141,146.617651 781.25907,147.290658 C781.95974,147.639203 782.783266,147.639203 783.483937,147.290658 C784.836866,146.617651 786.479575,147.151399 787.178534,148.491106 C787.540518,149.184928 788.206765,149.668985 788.978489,149.79885 C790.468615,150.049607 791.483865,151.446978 791.261875,152.941661 C791.146908,153.715745 791.401392,154.498965 791.949397,155.057635 C793.007543,156.136377 793.007543,157.863623 791.949397,158.942365 C791.401392,159.501035 791.146908,160.284255 791.261875,161.058339 C791.483865,162.553022 790.468615,163.950393 788.978489,164.20115 C788.206765,164.331015 787.540518,164.815072 787.178534,165.508894 C786.479575,166.848601 784.836866,167.382349 783.483937,166.709342 C782.783266,166.360797 781.95974,166.360797 781.25907,166.709342 C779.906141,167.382349 778.263432,166.848601 777.564473,165.508894 Z M732,130 C731.447715,130 731,129.552285 731,129 C731,128.447715 731.447715,128 732,128 L792,128 C792.552285,128 793,128.447715 793,129 C793,129.552285 792.552285,130 792,130 L732,130 Z M732,120 C731.447715,120 731,119.552285 731,119 C731,118.447715 731.447715,118 732,118 L792,118 C792.552285,118 793,118.447715 793,119 C793,119.552285 792.552285,120 792,120 L732,120 Z M732,110 C731.447715,110 731,109.552285 731,109 C731,108.447715 731.447715,108 732,108 L792,108 C792.552285,108 793,108.447715 793,109 C793,109.552285 792.552285,110 792,110 L732,110 Z M732,140 C731.447715,140 731,139.552285 731,139 C731,138.447715 731.447715,138 732,138 L762,138 C762.552285,138 763,138.447715 763,139 C763,139.552285 762.552285,140 762,140 L732,140 Z M784.374702,164.918661 C784.752118,165.106404 785.210371,164.957509 785.405354,164.583782 C786.057192,163.334391 787.256927,162.462733 788.646597,162.228881 C789.062286,162.158929 789.345502,161.769115 789.283575,161.352156 C789.07655,159.958236 789.534808,158.547864 790.52162,157.541846 C790.816802,157.240918 790.816802,156.759082 790.52162,156.458154 C789.534808,155.452136 789.07655,154.041764 789.283575,152.647844 C789.345502,152.230885 789.062286,151.841071 788.646597,151.771119 C787.256927,151.537267 786.057192,150.665609 785.405354,149.416218 C785.210371,149.042491 784.752118,148.893596 784.374702,149.081339 C783.11298,149.708976 781.630027,149.708976 780.368305,149.081339 C779.990889,148.893596 779.532636,149.042491 779.337653,149.416218 C778.685814,150.665609 777.48608,151.537267 776.09641,151.771119 C775.680721,151.841071 775.397505,152.230885 775.459432,152.647844 C775.666457,154.041764 775.208199,155.452136 774.221387,156.458154 C773.926204,156.759082 773.926204,157.240918 774.221387,157.541846 C775.208199,158.547864 775.666457,159.958236 775.459432,161.352156 C775.397505,161.769115 775.680721,162.158929 776.09641,162.228881 C777.48608,162.462733 778.685814,163.334391 779.337653,164.583782 C779.532636,164.957509 779.990889,165.106404 780.368305,164.918661 C781.630027,164.291024 783.11298,164.291024 784.374702,164.918661 Z M757,71 L767,71 C768.104569,71 769,71.8954305 769,73 C769,74.1045695 768.104569,75 767,75 L757,75 C755.895431,75 755,74.1045695 755,73 C755,71.8954305 755.895431,71 757,71 Z" id="4"></path>
        </g>
    </g>
</svg>