<?xml version="1.0" encoding="UTF-8"?>
<svg width="68px" height="89px" viewBox="0 0 68 89" version="1.1" xmlns="http://www.w3.org/2000/svg" xmlns:xlink="http://www.w3.org/1999/xlink">
    <!-- Generator: Sketch 48.1 (47250) - http://www.bohemiancoding.com/sketch -->
    <title>4_pr</title>
    <desc>Created with Sketch.</desc>
    <defs>
        <linearGradient x1="0%" y1="0%" x2="100%" y2="100%" id="linearGradient-1">
            <stop stop-color="#EC008C" offset="0%"></stop>
            <stop stop-color="#6FBAFF" offset="100%"></stop>
        </linearGradient>
    </defs>
    <g id="Page-1" stroke="none" stroke-width="1" fill="none" fill-rule="evenodd">
        <path d="M1,89 C0.44771525,89 0,88.5522847 0,88 L0,1 C0,0.44771525 0.44771525,0 1,0 L67,0 C67.5522847,0 68,0.44771525 68,1 L68,88 C68,88.5522847 67.5522847,89 67,89 L1,89 Z M2,87 L66,87 L66,2 L2,2 L2,87 Z M57.5391,19 C57.5391,18.6776081 57.3613652,18.3416275 56.8053484,17.5954703 C56.6349763,17.3668364 56.610777,17.3341879 56.5392914,17.2352547 C56.2413661,16.8229385 56.0424239,16.4971797 55.8974712,16.1456891 C55.7046788,15.6844995 55.6259741,15.3106762 55.499465,14.4739809 C55.355015,13.5186255 55.2502321,13.1713456 55.0389932,12.9601068 C54.8288679,12.7499814 54.4805707,12.6450911 53.5270086,12.5012143 C52.690456,12.374977 52.3125862,12.2955371 51.8516703,12.1051543 C51.5017199,11.9594242 51.1801663,11.7626288 50.776731,11.4706658 C50.6746705,11.3968053 50.6427702,11.3730848 50.4051418,11.1953949 C49.6603104,10.638437 49.3235423,10.46 48.9991,10.46 C48.6765842,10.46 48.3412495,10.6378705 47.5949795,11.1955679 C47.3739555,11.3607421 47.3442198,11.3828562 47.2494993,11.4516679 C46.8313983,11.7554061 46.5044569,11.956524 46.1447482,12.1058941 C45.6858766,12.2959445 45.3104441,12.3748204 44.4831995,12.4997518 C43.5203996,12.6451479 43.1723142,12.7499994 42.9634843,12.958827 C42.7519005,13.1711774 42.6463723,13.5206206 42.5011219,14.4749482 C42.373567,15.3130126 42.2954667,15.6840114 42.1046394,16.1435036 C41.9572607,16.4984156 41.7584154,16.8232609 41.4604807,17.2354167 C41.3897675,17.3332397 41.3660571,17.3652352 41.1973126,17.5917648 C40.6401276,18.3397526 40.4621,18.676382 40.4621,19 C40.4621,19.323618 40.6401276,19.6602474 41.1973126,20.4082352 C41.3660571,20.6347648 41.3897675,20.6667603 41.4604807,20.7645833 C41.7584154,21.1767391 41.9572607,21.5015844 42.1046242,21.8564599 C42.2957896,22.316766 42.3736797,22.6883044 42.5002666,23.5261259 C42.6444953,24.4807103 42.749401,24.8293249 42.957927,25.0386157 C43.1697932,25.2497171 43.5186209,25.354662 44.4734089,25.4987968 C45.3109244,25.6252304 45.6850517,25.7037139 46.1456036,25.8944606 C46.5044569,26.043476 46.8313983,26.2445939 47.2494993,26.5483321 C47.3442198,26.6171438 47.3739555,26.6392579 47.5949795,26.8044321 C48.3412495,27.3621295 48.6765842,27.54 48.9991,27.54 C49.3235423,27.54 49.6603104,27.361563 50.4051418,26.8046051 C50.6427702,26.6269152 50.6746705,26.6031947 50.776731,26.5293342 C51.1801663,26.2373712 51.5017199,26.0405758 51.8543398,25.8937386 C52.3117609,25.7048038 52.6908251,25.6249934 53.5077516,25.5016653 C54.4787907,25.3550991 54.8263434,25.2503031 55.0359932,25.0398932 C55.2478406,24.8280459 55.3531261,24.4801136 55.4983687,23.5265281 C55.6261311,22.6877099 55.7048827,22.3150128 55.8956384,21.8587249 C56.0424239,21.5028203 56.2413661,21.1770615 56.5392914,20.7647453 C56.610777,20.6658121 56.6349763,20.6331636 56.8053484,20.4045297 C57.3613652,19.6583725 57.5391,19.3223919 57.5391,19 Z M53.5241531,27.5233434 L55.9796896,39.8039284 C56.1428461,40.6199036 55.2961635,41.2665658 54.5518864,40.8944272 L48.9991,38.118034 L43.4463136,40.8944272 C42.7019423,41.2666128 41.8551924,40.6197469 42.018555,39.8037056 L44.4769309,27.5234358 C44.3874828,27.5089182 44.2892867,27.4936626 44.1807455,27.4772769 C42.7807836,27.2659387 42.1776555,27.0844874 41.5437157,26.452827 C40.9146918,25.821524 40.7333091,25.2187669 40.5227289,23.8250316 C40.4213263,23.1538934 40.3637262,22.8791392 40.2575606,22.6235036 C40.1824047,22.4425159 40.0543,22.2332365 39.8396202,21.9362535 C39.77705,21.8496955 39.7548036,21.8196755 39.5934038,21.6030058 C38.778017,20.5083973 38.4621,19.9110352 38.4621,19 C38.4621,18.0889648 38.778017,17.4916027 39.5934038,16.3969942 C39.7548036,16.1803245 39.77705,16.1503045 39.8396202,16.0637465 C40.0543,15.7667635 40.1824047,15.5574841 40.2575758,15.3764599 C40.3637849,15.1207194 40.4216073,14.8460463 40.5236852,14.1753718 C40.7358383,12.7814789 40.9180462,12.1781203 41.5479932,11.5458932 C42.1781528,10.9157336 42.7810738,10.7341198 44.174999,10.5236177 C44.8467883,10.4221634 45.1239168,10.3639405 45.3785964,10.2584606 C45.5611976,10.1826347 45.7721505,10.052867 46.0740049,9.83357868 C46.1581066,9.77248127 46.186059,9.75169323 46.3977361,9.59350412 C47.4911151,8.77640763 48.0876302,8.46 48.9991,8.46 C49.9120278,8.46 50.5116122,8.77769065 51.6028481,9.59367717 C51.8296558,9.76327577 51.8595144,9.78547815 51.949277,9.85043861 C52.2379247,10.0593307 52.4433943,10.1850811 52.6178602,10.2577386 C52.8738374,10.3634683 53.15259,10.4220707 53.8100692,10.5212857 C55.2196777,10.7339724 55.822968,10.9156544 56.4532068,11.5458932 C57.0841187,12.1768052 57.2660161,12.779664 57.4765284,14.1719385 C57.5781086,14.8437606 57.6361152,15.1192745 57.7445616,15.3787249 C57.8188957,15.5589595 57.9464735,15.7678624 58.1603861,16.0639085 C58.2235243,16.1512892 58.2462084,16.1818935 58.4090557,16.4004295 C59.2233899,17.4932404 59.5391,18.0900423 59.5391,19 C59.5391,19.9099577 59.2233899,20.5067596 58.4090557,21.5995705 C58.2462084,21.8181065 58.2235243,21.8487108 58.1603861,21.9360915 C57.9464735,22.2321376 57.8188957,22.4410405 57.7427288,22.6256891 C57.6359782,22.8810534 57.5778433,23.1561805 57.4758068,23.8260966 C57.2634249,25.2204824 57.0810088,25.8233048 56.4514889,26.4528223 C55.822475,27.0841236 55.2193921,27.2659685 53.8252705,27.4763935 C53.7148374,27.493065 53.6150059,27.5085847 53.5241531,27.5233434 Z M51.6535394,28.3684211 C51.6378107,28.3801799 51.6209572,28.3927815 51.6028481,28.4063228 C50.5116122,29.2223093 49.9120278,29.54 48.9991,29.54 C48.0876302,29.54 47.4911151,29.2235924 46.3977361,28.4064959 C46.3796564,28.3929847 46.362917,28.3804759 46.3473685,28.3688587 L44.3810887,38.1909716 L48.5518864,36.1055728 C48.8334139,35.9648091 49.1647861,35.9648091 49.4463136,36.1055728 L53.6176379,38.1912349 L51.6535394,28.3684211 Z M10,14 C9.44771525,14 9,13.5522847 9,13 C9,12.4477153 9.44771525,12 10,12 L25,12 C25.5522847,12 26,12.4477153 26,13 C26,13.5522847 25.5522847,14 25,14 L10,14 Z M16,56 C15.4477153,56 15,55.5522847 15,55 C15,54.4477153 15.4477153,54 16,54 L49,54 C49.5522847,54 50,54.4477153 50,55 C50,55.5522847 49.5522847,56 49,56 L16,56 Z M22,65 C21.4477153,65 21,64.5522847 21,64 C21,63.4477153 21.4477153,63 22,63 L43,63 C43.5522847,63 44,63.4477153 44,64 C44,64.5522847 43.5522847,65 43,65 L22,65 Z M28,71 C27.4477153,71 27,70.5522847 27,70 C27,69.4477153 27.4477153,69 28,69 L37,69 C37.5522847,69 38,69.4477153 38,70 C38,70.5522847 37.5522847,71 37,71 L28,71 Z" id="4_pr" fill="url(#linearGradient-1)" fill-rule="nonzero"></path>
    </g>
</svg>