<?xml version="1.0" encoding="UTF-8"?>
<svg width="28px" height="28px" viewBox="0 0 28 28" version="1.1" xmlns="http://www.w3.org/2000/svg" xmlns:xlink="http://www.w3.org/1999/xlink">
    <!-- Generator: Sketch 47.1 (45422) - http://www.bohemiancoding.com/sketch -->
    <title>Oval-13-Copy-7</title>
    <desc>Created with Sketch.</desc>
    <defs></defs>
    <g id="Page-1" stroke="none" stroke-width="1" fill="none" fill-rule="evenodd">
        <path d="M15.5281,27.9175633 C22.5412367,27.1562651 28,21.215614 28,14 C28,6.26801311 21.7319869,0 14,0 C6.26801311,0 0,6.26801311 0,14 C0,20.6860407 4.68689978,26.2773964 10.9544229,27.6677893 L10.9544229,19.4325958 L7.77777778,19.4325958 L7.77777778,15.2275309 L10.9544229,15.2275309 L10.9544229,11.6360269 C10.9544229,8.81396911 12.8309036,6.22222222 17.1548191,6.22222222 C18.9054864,6.22222222 20.2002811,6.38536889 20.2002811,6.38536889 L20.0980422,10.3117902 C20.0980422,10.3117902 18.7778049,10.2995371 17.3371224,10.2995371 C15.7778616,10.2995371 15.5281,10.9979613 15.5281,12.157236 C15.5281,13.073718 15.5281,10.2037818 15.5281,15.2275309 L20.2222222,15.2275309 L20.0179778,19.4325958 L15.5281,19.4325958 L15.5281,27.9175633 L15.5281,27.9175633 Z" id="Oval-13-Copy-7" fill="#404F90"></path>
    </g>
</svg>