<?xml version="1.0" encoding="UTF-8"?>
<svg width="169px" height="51px" viewBox="0 0 169 51" version="1.1" xmlns="http://www.w3.org/2000/svg" xmlns:xlink="http://www.w3.org/1999/xlink">
    <!-- Generator: Sketch 47.1 (45422) - http://www.bohemiancoding.com/sketch -->
    <title>google-play-badge</title>
    <desc>Created with Sketch.</desc>
    <defs>
        <linearGradient x1="91.5361538%" y1="4.8388%" x2="-37.5592308%" y2="71.9684%" id="linearGradient-1">
            <stop stop-color="#00A0FF" offset="0%"></stop>
            <stop stop-color="#00A1FF" offset="0.657445%"></stop>
            <stop stop-color="#00BEFF" offset="26.01%"></stop>
            <stop stop-color="#00D2FF" offset="51.22%"></stop>
            <stop stop-color="#00DFFF" offset="76.04%"></stop>
            <stop stop-color="#00E3FF" offset="100%"></stop>
        </linearGradient>
        <linearGradient x1="107.728079%" y1="49.4282353%" x2="-130.665025%" y2="49.4282353%" id="linearGradient-2">
            <stop stop-color="#FFE000" offset="0%"></stop>
            <stop stop-color="#FFBD00" offset="40.87%"></stop>
            <stop stop-color="#FFA500" offset="77.54%"></stop>
            <stop stop-color="#FF9C00" offset="100%"></stop>
        </linearGradient>
        <linearGradient x1="86.3892216%" y1="17.8150459%" x2="-49.888024%" y2="194.392791%" id="linearGradient-3">
            <stop stop-color="#FF3A44" offset="0%"></stop>
            <stop stop-color="#C31162" offset="100%"></stop>
        </linearGradient>
        <linearGradient x1="-18.5790419%" y1="-54.5266535%" x2="42.2748503%" y2="24.6901019%" id="linearGradient-4">
            <stop stop-color="#32A071" offset="0%"></stop>
            <stop stop-color="#2DA771" offset="6.85%"></stop>
            <stop stop-color="#15CF74" offset="47.62%"></stop>
            <stop stop-color="#06E775" offset="80.09%"></stop>
            <stop stop-color="#00F076" offset="100%"></stop>
        </linearGradient>
    </defs>
    <g id="Page-1" stroke="none" stroke-width="1" fill="none" fill-rule="evenodd">
        <g id="google-play-badge" fill-rule="nonzero">
            <path d="M162.740741,50.0740741 L6.25925926,50.0740741 C2.75407407,50.0740741 0,47.32 0,43.8148148 L0,6.25925926 C0,2.75407407 2.75407407,0 6.25925926,0 L162.740741,0 C166.245926,0 169,2.75407407 169,6.25925926 L169,43.8148148 C169,47.1948148 166.245926,50.0740741 162.740741,50.0740741 Z" id="Shape" fill="#FFFFFF"></path>
            <g id="Group" transform="translate(51.325926, 7.511111)" fill="#232833">
                <path d="M8.01185185,5.25777778 C8.01185185,6.25925926 7.76148148,7.13555556 7.13555556,7.76148148 C6.38444444,8.51259259 5.50814815,8.88814815 4.38148148,8.88814815 C3.25481481,8.88814815 2.37851852,8.51259259 1.62740741,7.76148148 C0.876296296,7.01037037 0.500740741,6.13407407 0.500740741,5.00740741 C0.500740741,3.88074074 0.876296296,3.00444444 1.62740741,2.25333333 C2.37851852,1.50222222 3.25481481,1.12666667 4.38148148,1.12666667 C4.88222222,1.12666667 5.38296296,1.25185185 5.8837037,1.50222222 C6.38444444,1.75259259 6.76,2.00296296 7.01037037,2.37851852 L6.38444444,3.00444444 C5.8837037,2.37851852 5.25777778,2.12814815 4.38148148,2.12814815 C3.63037037,2.12814815 2.87925926,2.37851852 2.37851852,3.00444444 C1.75259259,3.50518519 1.50222222,4.2562963 1.50222222,5.13259259 C1.50222222,6.00888889 1.75259259,6.76 2.37851852,7.26074074 C3.00444444,7.76148148 3.63037037,8.13703704 4.38148148,8.13703704 C5.25777778,8.13703704 5.8837037,7.88666667 6.50962963,7.26074074 C6.88518519,6.88518519 7.13555556,6.38444444 7.13555556,5.75851852 L4.38148148,5.75851852 L4.38148148,4.88222222 L8.01185185,4.88222222 C8.01185185,4.88222222 8.01185185,5.13259259 8.01185185,5.25777778 Z" id="Shape"></path>
                <polygon id="Shape" points="13.7703704 2.12814815 10.3903704 2.12814815 10.3903704 4.50666667 13.52 4.50666667 13.52 5.38296296 10.3903704 5.38296296 10.3903704 7.76148148 13.7703704 7.76148148 13.7703704 8.76296296 9.38888889 8.76296296 9.38888889 1.25185185 13.7703704 1.25185185"></polygon>
                <polygon id="Shape" points="17.9014815 8.76296296 16.9 8.76296296 16.9 2.12814815 14.7718519 2.12814815 14.7718519 1.25185185 20.0296296 1.25185185 20.0296296 2.12814815 17.9014815 2.12814815"></polygon>
                <polygon id="Shape" points="23.66 8.76296296 23.66 1.25185185 24.6614815 1.25185185 24.6614815 8.76296296"></polygon>
                <polygon id="Shape" points="28.9177778 8.76296296 27.9162963 8.76296296 27.9162963 2.12814815 25.7881481 2.12814815 25.7881481 1.25185185 30.9207407 1.25185185 30.9207407 2.12814815 28.7925926 2.12814815 28.7925926 8.76296296"></polygon>
                <path d="M40.8103704,7.76148148 C40.0592593,8.51259259 39.182963,8.88814815 38.0562963,8.88814815 C36.9296296,8.88814815 36.0533333,8.51259259 35.3022222,7.76148148 C34.5511111,7.01037037 34.1755556,6.13407407 34.1755556,5.00740741 C34.1755556,3.88074074 34.5511111,3.00444444 35.3022222,2.25333333 C36.0533333,1.50222222 36.9296296,1.12666667 38.0562963,1.12666667 C39.182963,1.12666667 40.0592593,1.50222222 40.8103704,2.25333333 C41.5614815,3.00444444 41.937037,3.88074074 41.937037,5.00740741 C41.937037,6.13407407 41.5614815,7.01037037 40.8103704,7.76148148 Z M36.0533333,7.13555556 C36.5540741,7.6362963 37.3051852,8.01185185 38.0562963,8.01185185 C38.8074074,8.01185185 39.5585185,7.76148148 40.0592593,7.13555556 C40.56,6.63481481 40.9355556,5.8837037 40.9355556,5.00740741 C40.9355556,4.13111111 40.6851852,3.38 40.0592593,2.87925926 C39.5585185,2.37851852 38.8074074,2.00296296 38.0562963,2.00296296 C37.3051852,2.00296296 36.5540741,2.25333333 36.0533333,2.87925926 C35.5525926,3.38 35.177037,4.13111111 35.177037,5.00740741 C35.177037,5.8837037 35.4274074,6.63481481 36.0533333,7.13555556 Z" id="Shape"></path>
                <polygon id="Shape" points="43.3140741 8.76296296 43.3140741 1.25185185 44.4407407 1.25185185 48.0711111 7.13555556 48.0711111 7.13555556 48.0711111 5.63333333 48.0711111 1.25185185 49.0725926 1.25185185 49.0725926 8.76296296 48.0711111 8.76296296 44.1903704 2.62888889 44.1903704 2.62888889 44.1903704 4.13111111 44.1903704 8.76296296"></polygon>
            </g>
            <path d="M85.2511111,27.2903704 C82.2466667,27.2903704 79.8681481,29.5437037 79.8681481,32.6733333 C79.8681481,35.6777778 82.2466667,38.0562963 85.2511111,38.0562963 C88.2555556,38.0562963 90.6340741,35.802963 90.6340741,32.6733333 C90.6340741,29.4185185 88.2555556,27.2903704 85.2511111,27.2903704 Z M85.2511111,35.802963 C83.6237037,35.802963 82.2466667,34.4259259 82.2466667,32.5481481 C82.2466667,30.6703704 83.6237037,29.2933333 85.2511111,29.2933333 C86.8785185,29.2933333 88.2555556,30.5451852 88.2555556,32.5481481 C88.2555556,34.4259259 86.8785185,35.802963 85.2511111,35.802963 Z M73.6088889,27.2903704 C70.6044444,27.2903704 68.2259259,29.5437037 68.2259259,32.6733333 C68.2259259,35.6777778 70.6044444,38.0562963 73.6088889,38.0562963 C76.6133333,38.0562963 78.9918519,35.802963 78.9918519,32.6733333 C78.9918519,29.4185185 76.6133333,27.2903704 73.6088889,27.2903704 Z M73.6088889,35.802963 C71.9814815,35.802963 70.6044444,34.4259259 70.6044444,32.5481481 C70.6044444,30.6703704 71.9814815,29.2933333 73.6088889,29.2933333 C75.2362963,29.2933333 76.6133333,30.5451852 76.6133333,32.5481481 C76.6133333,34.4259259 75.2362963,35.802963 73.6088889,35.802963 Z M59.7133333,28.9177778 L59.7133333,31.1711111 L65.0962963,31.1711111 C64.9711111,32.422963 64.4703704,33.4244444 63.8444444,34.0503704 C63.0933333,34.8014815 61.8414815,35.6777778 59.7133333,35.6777778 C56.3333333,35.6777778 53.8296296,33.0488889 53.8296296,29.6688889 C53.8296296,26.2888889 56.4585185,23.66 59.7133333,23.66 C61.4659259,23.66 62.842963,24.4111111 63.8444444,25.2874074 L65.4718519,23.66 C64.0948148,22.4081481 62.3422222,21.4066667 59.8385185,21.4066667 C55.3318519,21.4066667 51.4511111,25.1622222 51.4511111,29.6688889 C51.4511111,34.1755556 55.3318519,37.9311111 59.8385185,37.9311111 C62.3422222,37.9311111 64.0948148,37.18 65.597037,35.5525926 C67.0992593,34.0503704 67.6,31.9222222 67.6,30.2948148 C67.6,29.7940741 67.6,29.2933333 67.4748148,28.9177778 L59.7133333,28.9177778 L59.7133333,28.9177778 Z M116.547407,30.6703704 C116.046667,29.4185185 114.794815,27.2903704 112.040741,27.2903704 C109.286667,27.2903704 107.033333,29.4185185 107.033333,32.6733333 C107.033333,35.6777778 109.286667,38.0562963 112.291111,38.0562963 C114.66963,38.0562963 116.171852,36.5540741 116.672593,35.6777778 L114.92,34.4259259 C114.294074,35.3022222 113.542963,35.9281481 112.291111,35.9281481 C111.039259,35.9281481 110.288148,35.4274074 109.662222,34.3007407 L116.797778,31.2962963 L116.547407,30.6703704 Z M109.286667,32.422963 C109.286667,30.42 110.914074,29.2933333 112.040741,29.2933333 C112.917037,29.2933333 113.793333,29.7940741 114.043704,30.42 L109.286667,32.422963 Z M103.402963,37.5555556 L105.781481,37.5555556 L105.781481,21.9074074 L103.402963,21.9074074 L103.402963,37.5555556 Z M99.6474074,28.417037 L99.6474074,28.417037 C99.0214815,27.7911111 98.02,27.1651852 96.7681481,27.1651852 C94.1392593,27.1651852 91.6355556,29.5437037 91.6355556,32.5481481 C91.6355556,35.5525926 94.0140741,37.8059259 96.7681481,37.8059259 C98.02,37.8059259 99.0214815,37.18 99.5222222,36.5540741 L99.6474074,36.5540741 L99.6474074,37.3051852 C99.6474074,39.3081481 98.5207407,40.4348148 96.7681481,40.4348148 C95.3911111,40.4348148 94.3896296,39.4333333 94.1392593,38.557037 L92.1362963,39.4333333 C92.7622222,40.8103704 94.2644444,42.562963 96.8933333,42.562963 C99.6474074,42.562963 101.900741,40.9355556 101.900741,37.0548148 L101.900741,27.5407407 L99.6474074,27.5407407 L99.6474074,28.417037 L99.6474074,28.417037 Z M96.8933333,35.802963 C95.2659259,35.802963 93.8888889,34.4259259 93.8888889,32.5481481 C93.8888889,30.6703704 95.2659259,29.2933333 96.8933333,29.2933333 C98.5207407,29.2933333 99.7725926,30.6703704 99.7725926,32.5481481 C99.7725926,34.4259259 98.5207407,35.802963 96.8933333,35.802963 Z M127.438519,21.9074074 L121.805185,21.9074074 L121.805185,37.5555556 L124.183704,37.5555556 L124.183704,31.6718519 L127.438519,31.6718519 C130.067407,31.6718519 132.571111,29.7940741 132.571111,26.7896296 C132.571111,23.7851852 130.067407,21.9074074 127.438519,21.9074074 Z M127.563704,29.4185185 L124.183704,29.4185185 L124.183704,24.0355556 L127.563704,24.0355556 C129.316296,24.0355556 130.317778,25.5377778 130.317778,26.6644444 C130.192593,28.0414815 129.191111,29.4185185 127.563704,29.4185185 Z M141.96,27.1651852 C140.207407,27.1651852 138.454815,27.9162963 137.828889,29.5437037 L139.957037,30.42 C140.457778,29.5437037 141.208889,29.2933333 142.085185,29.2933333 C143.337037,29.2933333 144.463704,30.0444444 144.588889,31.2962963 L144.588889,31.4214815 C144.213333,31.1711111 143.211852,30.7955556 142.21037,30.7955556 C139.957037,30.7955556 137.703704,32.0474074 137.703704,34.3007407 C137.703704,36.4288889 139.581481,37.8059259 141.584444,37.8059259 C143.211852,37.8059259 143.962963,37.0548148 144.588889,36.3037037 L144.714074,36.3037037 L144.714074,37.5555556 L146.967407,37.5555556 L146.967407,31.5466667 C146.717037,28.7925926 144.588889,27.1651852 141.96,27.1651852 Z M141.70963,35.802963 C140.958519,35.802963 139.831852,35.4274074 139.831852,34.4259259 C139.831852,33.1740741 141.208889,32.7985185 142.335556,32.7985185 C143.337037,32.7985185 143.837778,33.0488889 144.463704,33.2992593 C144.213333,34.8014815 142.961481,35.802963 141.70963,35.802963 Z M154.854074,27.5407407 L152.225185,34.3007407 L152.1,34.3007407 L149.345926,27.5407407 L146.842222,27.5407407 L150.973333,37.0548148 L148.594815,42.3125926 L150.973333,42.3125926 L157.357778,27.5407407 L154.854074,27.5407407 Z M133.822963,37.5555556 L136.201481,37.5555556 L136.201481,21.9074074 L133.822963,21.9074074 L133.822963,37.5555556 Z" id="Shape" fill="#232833"></path>
            <g id="Group" transform="translate(11.266667, 8.762963)">
                <path d="M1.75259259,0.625925926 C1.37703704,1.00148148 1.12666667,1.62740741 1.12666667,2.37851852 L1.12666667,30.0444444 C1.12666667,30.7955556 1.37703704,31.4214815 1.75259259,31.797037 L1.87777778,31.9222222 L17.4007407,16.3992593 L17.4007407,16.2740741 L17.4007407,16.1488889 L1.75259259,0.625925926 L1.75259259,0.625925926 Z" id="Shape" fill="url(#linearGradient-1)"></path>
                <path d="M22.5333333,21.657037 L17.4007407,16.5244444 L17.4007407,16.2740741 L17.4007407,16.1488889 L22.5333333,11.0162963 L22.6585185,11.1414815 L28.7925926,14.6466667 C30.5451852,15.6481481 30.5451852,17.2755556 28.7925926,18.277037 L22.5333333,21.657037 L22.5333333,21.657037 Z" id="Shape" fill="url(#linearGradient-2)"></path>
                <path d="M22.6585185,21.5318519 L17.4007407,16.2740741 L1.75259259,31.9222222 C2.37851852,32.5481481 3.25481481,32.5481481 4.38148148,32.0474074 L22.6585185,21.5318519" id="Shape" fill="url(#linearGradient-3)"></path>
                <path d="M22.6585185,11.0162963 L4.38148148,0.625925926 C3.25481481,-4.99600361e-16 2.37851852,0.125185185 1.75259259,0.751111111 L17.4007407,16.2740741 L22.6585185,11.0162963 Z" id="Shape" fill="url(#linearGradient-4)"></path>
                <g transform="translate(1.251852, 21.281481)" id="Shape" fill="#000000">
                    <path d="M21.2814815,0.125185185 L3.12962963,10.3903704 C2.12814815,11.0162963 1.25185185,10.8911111 0.625925926,10.3903704 L0.625925926,10.3903704 L0.500740741,10.5155556 L0.500740741,10.5155556 L0.625925926,10.6407407 L0.625925926,10.6407407 C1.25185185,11.1414815 2.12814815,11.2666667 3.12962963,10.6407407 L21.2814815,0.125185185 L21.2814815,0.125185185 Z" opacity="0.2"></path>
                    <path d="M0.500740741,10.3903704 C0.125185185,10.0148148 0,9.38888889 0,8.63777778 L0,8.76296296 C0,9.51407407 0.25037037,10.14 0.625925926,10.5155556 L0.625925926,10.3903704 L0.500740741,10.3903704 Z" opacity="0.12"></path>
                </g>
                <path d="M28.7925926,17.9014815 L22.5333333,21.4066667 L22.6585185,21.5318519 L28.7925926,18.0266667 C29.6688889,17.5259259 30.0444444,16.9 30.0444444,16.2740741 L30.0444444,16.2740741 C30.0444444,16.9 29.5437037,17.4007407 28.7925926,17.9014815 Z" id="Shape" fill="#000000" opacity="0.12"></path>
                <path d="M4.38148148,0.751111111 L28.7925926,14.6466667 C29.5437037,15.1474074 30.0444444,15.6481481 30.0444444,16.2740741 L30.0444444,16.2740741 C30.0444444,15.6481481 29.6688889,15.0222222 28.7925926,14.5214815 L4.38148148,0.625925926 C2.62888889,-0.375555556 1.25185185,0.500740741 1.25185185,2.5037037 L1.25185185,2.62888889 C1.25185185,0.625925926 2.62888889,-0.25037037 4.38148148,0.751111111 Z" id="Shape" fill="#FFFFFF" opacity="0.25"></path>
            </g>
        </g>
    </g>
</svg>