<?xml version="1.0" encoding="UTF-8"?>
<svg width="169px" height="50px" viewBox="0 0 169 50" version="1.1" xmlns="http://www.w3.org/2000/svg" xmlns:xlink="http://www.w3.org/1999/xlink">
    <!-- Generator: Sketch 47.1 (45422) - http://www.bohemiancoding.com/sketch -->
    <title>google play</title>
    <desc>Created with Sketch.</desc>
    <defs>
        <linearGradient x1="91.5361538%" y1="4.8388%" x2="-37.5592308%" y2="71.9684%" id="linearGradient-1">
            <stop stop-color="#00A0FF" offset="0%"></stop>
            <stop stop-color="#00A1FF" offset="0.657445%"></stop>
            <stop stop-color="#00BEFF" offset="26.01%"></stop>
            <stop stop-color="#00D2FF" offset="51.22%"></stop>
            <stop stop-color="#00DFFF" offset="76.04%"></stop>
            <stop stop-color="#00E3FF" offset="100%"></stop>
        </linearGradient>
        <linearGradient x1="107.728079%" y1="49.4282353%" x2="-130.665025%" y2="49.4282353%" id="linearGradient-2">
            <stop stop-color="#FFE000" offset="0%"></stop>
            <stop stop-color="#FFBD00" offset="40.87%"></stop>
            <stop stop-color="#FFA500" offset="77.54%"></stop>
            <stop stop-color="#FF9C00" offset="100%"></stop>
        </linearGradient>
        <linearGradient x1="86.3892216%" y1="17.8150459%" x2="-49.888024%" y2="194.392791%" id="linearGradient-3">
            <stop stop-color="#FF3A44" offset="0%"></stop>
            <stop stop-color="#C31162" offset="100%"></stop>
        </linearGradient>
        <linearGradient x1="-18.5790419%" y1="-54.5266535%" x2="42.2748503%" y2="24.6901019%" id="linearGradient-4">
            <stop stop-color="#32A071" offset="0%"></stop>
            <stop stop-color="#2DA771" offset="6.85%"></stop>
            <stop stop-color="#15CF74" offset="47.62%"></stop>
            <stop stop-color="#06E775" offset="80.09%"></stop>
            <stop stop-color="#00F076" offset="100%"></stop>
        </linearGradient>
    </defs>
    <g id="Page-1" stroke="none" stroke-width="1" fill="none" fill-rule="evenodd">
        <g id="Artboard-2" transform="translate(-1642.000000, -354.000000)" fill-rule="nonzero">
            <g id="google-play" transform="translate(1642.000000, 354.000000)">
                <g id="Group">
                    <path d="M162.740741,50 L6.25925926,50 C2.75407407,50 0,47.25 0,43.75 L0,6.25 C0,2.75 2.75407407,0 6.25925926,0 L162.740741,0 C166.245926,0 169,2.75 169,6.25 L169,43.75 C169,47.125 166.245926,50 162.740741,50 Z" id="Shape" fill="#FFFFFF"></path>
                    <path d="M85.2511111,27.25 C82.2466667,27.25 79.8681481,29.5 79.8681481,32.625 C79.8681481,35.625 82.2466667,38 85.2511111,38 C88.2555556,38 90.6340741,35.75 90.6340741,32.625 C90.6340741,29.375 88.2555556,27.25 85.2511111,27.25 Z M85.2511111,35.75 C83.6237037,35.75 82.2466667,34.375 82.2466667,32.5 C82.2466667,30.625 83.6237037,29.25 85.2511111,29.25 C86.8785185,29.25 88.2555556,30.5 88.2555556,32.5 C88.2555556,34.375 86.8785185,35.75 85.2511111,35.75 Z M73.6088889,27.25 C70.6044444,27.25 68.2259259,29.5 68.2259259,32.625 C68.2259259,35.625 70.6044444,38 73.6088889,38 C76.6133333,38 78.9918519,35.75 78.9918519,32.625 C78.9918519,29.375 76.6133333,27.25 73.6088889,27.25 Z M73.6088889,35.75 C71.9814815,35.75 70.6044444,34.375 70.6044444,32.5 C70.6044444,30.625 71.9814815,29.25 73.6088889,29.25 C75.2362963,29.25 76.6133333,30.5 76.6133333,32.5 C76.6133333,34.375 75.2362963,35.75 73.6088889,35.75 Z M59.7133333,28.875 L59.7133333,31.125 L65.0962963,31.125 C64.9711111,32.375 64.4703704,33.375 63.8444444,34 C63.0933333,34.75 61.8414815,35.625 59.7133333,35.625 C56.3333333,35.625 53.8296296,33 53.8296296,29.625 C53.8296296,26.25 56.4585185,23.625 59.7133333,23.625 C61.4659259,23.625 62.842963,24.375 63.8444444,25.25 L65.4718519,23.625 C64.0948148,22.375 62.3422222,21.375 59.8385185,21.375 C55.3318519,21.375 51.4511111,25.125 51.4511111,29.625 C51.4511111,34.125 55.3318519,37.875 59.8385185,37.875 C62.3422222,37.875 64.0948148,37.125 65.597037,35.5 C67.0992593,34 67.6,31.875 67.6,30.25 C67.6,29.75 67.6,29.25 67.4748148,28.875 L59.7133333,28.875 L59.7133333,28.875 Z M116.547407,30.625 C116.046667,29.375 114.794815,27.25 112.040741,27.25 C109.286667,27.25 107.033333,29.375 107.033333,32.625 C107.033333,35.625 109.286667,38 112.291111,38 C114.66963,38 116.171852,36.5 116.672593,35.625 L114.92,34.375 C114.294074,35.25 113.542963,35.875 112.291111,35.875 C111.039259,35.875 110.288148,35.375 109.662222,34.25 L116.797778,31.25 L116.547407,30.625 Z M109.286667,32.375 C109.286667,30.375 110.914074,29.25 112.040741,29.25 C112.917037,29.25 113.793333,29.75 114.043704,30.375 L109.286667,32.375 Z M103.402963,37.5 L105.781481,37.5 L105.781481,21.875 L103.402963,21.875 L103.402963,37.5 Z M99.6474074,28.375 L99.6474074,28.375 C99.0214815,27.75 98.02,27.125 96.7681481,27.125 C94.1392593,27.125 91.6355556,29.5 91.6355556,32.5 C91.6355556,35.5 94.0140741,37.75 96.7681481,37.75 C98.02,37.75 99.0214815,37.125 99.5222222,36.5 L99.6474074,36.5 L99.6474074,37.25 C99.6474074,39.25 98.5207407,40.375 96.7681481,40.375 C95.3911111,40.375 94.3896296,39.375 94.1392593,38.5 L92.1362963,39.375 C92.7622222,40.75 94.2644444,42.5 96.8933333,42.5 C99.6474074,42.5 101.900741,40.875 101.900741,37 L101.900741,27.5 L99.6474074,27.5 L99.6474074,28.375 L99.6474074,28.375 Z M96.8933333,35.75 C95.2659259,35.75 93.8888889,34.375 93.8888889,32.5 C93.8888889,30.625 95.2659259,29.25 96.8933333,29.25 C98.5207407,29.25 99.7725926,30.625 99.7725926,32.5 C99.7725926,34.375 98.5207407,35.75 96.8933333,35.75 Z M127.438519,21.875 L121.805185,21.875 L121.805185,37.5 L124.183704,37.5 L124.183704,31.625 L127.438519,31.625 C130.067407,31.625 132.571111,29.75 132.571111,26.75 C132.571111,23.75 130.067407,21.875 127.438519,21.875 Z M127.563704,29.375 L124.183704,29.375 L124.183704,24 L127.563704,24 C129.316296,24 130.317778,25.5 130.317778,26.625 C130.192593,28 129.191111,29.375 127.563704,29.375 Z M141.96,27.125 C140.207407,27.125 138.454815,27.875 137.828889,29.5 L139.957037,30.375 C140.457778,29.5 141.208889,29.25 142.085185,29.25 C143.337037,29.25 144.463704,30 144.588889,31.25 L144.588889,31.375 C144.213333,31.125 143.211852,30.75 142.21037,30.75 C139.957037,30.75 137.703704,32 137.703704,34.25 C137.703704,36.375 139.581481,37.75 141.584444,37.75 C143.211852,37.75 143.962963,37 144.588889,36.25 L144.714074,36.25 L144.714074,37.5 L146.967407,37.5 L146.967407,31.5 C146.717037,28.75 144.588889,27.125 141.96,27.125 Z M141.70963,35.75 C140.958519,35.75 139.831852,35.375 139.831852,34.375 C139.831852,33.125 141.208889,32.75 142.335556,32.75 C143.337037,32.75 143.837778,33 144.463704,33.25 C144.213333,34.75 142.961481,35.75 141.70963,35.75 Z M154.854074,27.5 L152.225185,34.25 L152.1,34.25 L149.345926,27.5 L146.842222,27.5 L150.973333,37 L148.594815,42.25 L150.973333,42.25 L157.357778,27.5 L154.854074,27.5 Z M133.822963,37.5 L136.201481,37.5 L136.201481,21.875 L133.822963,21.875 L133.822963,37.5 Z" id="Shape" fill="#232833"></path>
                    <g transform="translate(12.266667, 8.750000)" id="Shape">
                        <path d="M0.752592593,0.625 C0.377037037,1 0.126666667,1.625 0.126666667,2.375 L0.126666667,30 C0.126666667,30.75 0.377037037,31.375 0.752592593,31.75 L0.877777778,31.875 L16.4007407,16.375 L16.4007407,16.25 L16.4007407,16.125 L0.752592593,0.625 L0.752592593,0.625 Z" fill="url(#linearGradient-1)"></path>
                        <path d="M21.5333333,21.625 L16.4007407,16.5 L16.4007407,16.25 L16.4007407,16.125 L21.5333333,11 L21.6585185,11.125 L27.7925926,14.625 C29.5451852,15.625 29.5451852,17.25 27.7925926,18.25 L21.5333333,21.625 L21.5333333,21.625 Z" fill="url(#linearGradient-2)"></path>
                        <path d="M21.6585185,21.5 L16.4007407,16.25 L0.752592593,31.875 C1.37851852,32.5 2.25481481,32.5 3.38148148,32 L21.6585185,21.5" fill="url(#linearGradient-3)"></path>
                        <path d="M21.6585185,11 L3.38148148,0.625 C2.25481481,-1.27953204e-14 1.37851852,0.125 0.752592593,0.75 L16.4007407,16.25 L21.6585185,11 Z" fill="url(#linearGradient-4)"></path>
                        <g transform="translate(0.251852, 21.250000)" fill="#000000">
                            <path d="M21.2814815,0.125 L3.12962963,10.375 C2.12814815,11 1.25185185,10.875 0.625925926,10.375 L0.625925926,10.375 L0.500740741,10.5 L0.500740741,10.5 L0.625925926,10.625 L0.625925926,10.625 C1.25185185,11.125 2.12814815,11.25 3.12962963,10.625 L21.2814815,0.125 L21.2814815,0.125 Z" opacity="0.2"></path>
                            <path d="M0.500740741,8.375 C0.125185185,8 0,7.375 0,6.625 L0,6.75 C0,7.5 0.25037037,8.125 0.625925926,8.5 L0.625925926,8.375 L0.500740741,8.375 Z" opacity="0.12"></path>
                        </g>
                        <path d="M27.7925926,17.875 L21.5333333,21.375 L21.6585185,21.5 L27.7925926,18 C28.6688889,17.5 29.0444444,16.875 29.0444444,16.25 L29.0444444,16.25 C29.0444444,16.875 28.5437037,17.375 27.7925926,17.875 Z" fill="#000000" opacity="0.12"></path>
                        <path d="M3.38148148,0.75 L27.7925926,14.625 C28.5437037,15.125 29.0444444,15.625 29.0444444,16.25 L29.0444444,16.25 C29.0444444,15.625 28.6688889,15 27.7925926,14.5 L3.38148148,0.625 C1.62888889,-0.375 0.251851852,0.5 0.251851852,2.5 L0.251851852,2.625 C0.251851852,0.625 1.62888889,-0.25 3.38148148,0.75 Z" fill="#FFFFFF" opacity="0.25"></path>
                    </g>
                </g>
                <g id="Group" transform="translate(51.325926, 8.500000)" fill="#232833">
                    <path d="M1.37703704,9.375 L0.500740741,9.375 L0.500740741,6.875 L1.25185185,6.875 C1.87777778,6.375 2.25333333,5.375 2.25333333,4 L2.25333333,0.25 L7.26074074,0.25 L7.26074074,6.875 L8.13703704,6.875 L8.13703704,9.375 L7.26074074,9.375 L7.26074074,7.75 L1.50222222,7.75 L1.50222222,9.375 L1.37703704,9.375 Z M3.12962963,4 C3.12962963,5.125 2.87925926,6.125 2.37851852,6.875 L6.13407407,6.875 L6.13407407,1.25 L3.00444444,1.25 L3.00444444,4 L3.12962963,4 Z" id="Shape"></path>
                    <path d="M15.522963,6.75 C14.7718519,7.5 13.8955556,7.875 12.7688889,7.875 C11.6422222,7.875 10.7659259,7.5 10.0148148,6.75 C9.2637037,6 8.88814815,5.125 8.88814815,4 C8.88814815,2.875 9.2637037,2 10.0148148,1.25 C10.7659259,0.5 11.6422222,0.125 12.7688889,0.125 C13.8955556,0.125 14.7718519,0.5 15.522963,1.25 C16.2740741,2 16.6496296,2.875 16.6496296,4 C16.6496296,5.125 16.2740741,6 15.522963,6.75 Z M10.7659259,6.125 C11.2666667,6.625 12.0177778,7 12.7688889,7 C13.52,7 14.2711111,6.75 14.7718519,6.125 C15.2725926,5.625 15.6481481,4.875 15.6481481,4 C15.6481481,3.125 15.3977778,2.375 14.7718519,1.875 C14.2711111,1.375 13.52,1 12.7688889,1 C12.0177778,1 11.2666667,1.25 10.7659259,1.875 C10.2651852,2.375 9.88962963,3.125 9.88962963,4 C9.88962963,4.875 10.14,5.625 10.7659259,6.125 Z" id="Shape"></path>
                    <path d="M21.5318519,7.875 C20.4051852,7.875 19.5288889,7.5 18.7777778,6.75 C18.0266667,6 17.6511111,5.125 17.6511111,4 C17.6511111,2.875 18.0266667,2 18.7777778,1.25 C19.5288889,0.5 20.4051852,0.125 21.5318519,0.125 C22.6585185,0.125 23.5348148,0.5 24.2859259,1.375 L23.66,2 C23.1592593,1.375 22.4081481,1 21.5318519,1 C20.6555556,1 20.0296296,1.25 19.4037037,1.875 C18.7777778,2.375 18.5274074,3.125 18.5274074,4 C18.5274074,4.875 18.7777778,5.625 19.4037037,6.125 C19.9044444,6.625 20.6555556,7 21.5318519,7 C22.4081481,7 23.1592593,6.625 23.7851852,5.875 L24.4111111,6.5 C24.0355556,6.875 23.66,7.25 23.1592593,7.5 C22.6585185,7.75 22.1577778,7.875 21.5318519,7.875 Z" id="Shape"></path>
                    <polygon id="Shape" points="28.417037 7.75 27.4155556 7.75 27.4155556 1.125 25.2874074 1.125 25.2874074 0.25 30.42 0.25 30.42 1.125 28.2918519 1.125 28.2918519 7.75"></polygon>
                    <path d="M37.0548148,0.25 L34.1755556,6.625 C33.8,7.5 33.1740741,8 32.422963,8 C32.1725926,8 31.9222222,8 31.6718519,7.875 L31.9222222,7 C32.0474074,7.125 32.2977778,7.125 32.422963,7.125 C32.6733333,7.125 32.7985185,7.125 32.9237037,7 C33.0488889,6.875 33.1740741,6.75 33.2992593,6.5 L33.5496296,5.875 L31.0459259,0.375 L32.1725926,0.375 L34.0503704,4.625 L34.0503704,4.625 L35.802963,0.375 L37.0548148,0.375 L37.0548148,0.25 Z" id="Shape"></path>
                    <polygon id="Shape" points="38.1814815 7.75 38.1814815 0.25 43.5644444 0.25 43.5644444 7.75 42.562963 7.75 42.562963 1.125 39.0577778 1.125 39.0577778 7.75"></polygon>
                    <polygon id="Shape" points="45.317037 7.75 45.317037 0.25 46.3185185 0.25 46.3185185 3.5 50.0740741 3.5 50.0740741 0.25 51.0755556 0.25 51.0755556 7.75 50.0740741 7.75 50.0740741 4.375 46.3185185 4.375 46.3185185 7.75"></polygon>
                    <path d="M58.9622222,6.75 C58.2111111,7.5 57.3348148,7.875 56.2081481,7.875 C55.0814815,7.875 54.2051852,7.5 53.4540741,6.75 C52.702963,6 52.3274074,5.125 52.3274074,4 C52.3274074,2.875 52.702963,2 53.4540741,1.25 C54.2051852,0.5 55.0814815,0.125 56.2081481,0.125 C57.3348148,0.125 58.2111111,0.5 58.9622222,1.25 C59.7133333,2 60.0888889,2.875 60.0888889,4 C59.9637037,5.125 59.5881481,6 58.9622222,6.75 Z M54.08,6.125 C54.5807407,6.625 55.3318519,7 56.082963,7 C56.8340741,7 57.5851852,6.75 58.0859259,6.125 C58.5866667,5.625 58.9622222,4.875 58.9622222,4 C58.9622222,3.125 58.7118519,2.375 58.0859259,1.875 C57.5851852,1.375 56.8340741,1 56.082963,1 C55.3318519,1 54.5807407,1.25 54.08,1.875 C53.5792593,2.375 53.2037037,3.125 53.2037037,4 C53.2037037,4.875 53.5792593,5.625 54.08,6.125 Z" id="Shape"></path>
                    <path d="M63.9696296,7.75 L63.9696296,0.25 L66.7237037,0.25 C67.3496296,0.25 67.8503704,0.5 68.2259259,0.875 C68.6014815,1.25 68.8518519,1.75 68.8518519,2.375 C68.8518519,2.75 68.7266667,3 68.6014815,3.375 C68.4762963,3.625 68.2259259,3.875 67.8503704,4 L67.8503704,4 C68.2259259,4.125 68.4762963,4.375 68.7266667,4.625 C68.977037,4.875 69.1022222,5.25 69.1022222,5.75 C69.1022222,6.375 68.8518519,6.875 68.4762963,7.25 C67.9755556,7.625 67.4748148,7.875 66.8488889,7.875 L63.9696296,7.875 L63.9696296,7.75 Z M64.9711111,3.5 L66.7237037,3.5 C67.0992593,3.5 67.3496296,3.375 67.6,3.125 C67.8503704,2.875 67.9755556,2.625 67.9755556,2.375 C67.9755556,2.125 67.8503704,1.875 67.6,1.625 C67.3496296,1.375 67.0992593,1.25 66.7237037,1.25 L64.9711111,1.25 L64.9711111,3.5 Z M64.9711111,6.875 L66.9740741,6.875 C67.3496296,6.875 67.6,6.75 67.8503704,6.5 C68.1007407,6.25 68.2259259,6 68.2259259,5.625 C68.2259259,5.375 68.1007407,5 67.8503704,4.75 C67.6,4.5 67.3496296,4.375 66.9740741,4.375 L65.0962963,4.375 L65.0962963,6.875 L64.9711111,6.875 Z" id="Shape"></path>
                </g>
            </g>
        </g>
    </g>
</svg>