<?xml version="1.0" encoding="UTF-8"?>
<svg width="77px" height="77px" viewBox="0 0 77 77" version="1.1" xmlns="http://www.w3.org/2000/svg" xmlns:xlink="http://www.w3.org/1999/xlink">
    <!-- Generator: Sketch 48.1 (47250) - http://www.bohemiancoding.com/sketch -->
    <title>144</title>
    <desc>Created with Sketch.</desc>
    <defs>
        <radialGradient cx="100%" cy="0%" fx="100%" fy="0%" r="111.037862%" id="radialGradient-1">
            <stop stop-color="#FF0000" offset="0%"></stop>
            <stop stop-color="#000000" stop-opacity="0.5" offset="100%"></stop>
        </radialGradient>
        <circle id="path-2" cx="38.5" cy="38.5" r="38.5"></circle>
    </defs>
    <g id="Page-1" stroke="none" stroke-width="1" fill="none" fill-rule="evenodd">
        <g id="144">
            <g id="icon-android">
                <g id="Oval" fill-rule="evenodd">
                    <use fill="#03063A" xlink:href="#path-2"></use>
                    <use fill-opacity="0.65" fill="url(#radialGradient-1)" xlink:href="#path-2"></use>
                </g>
                <path d="M27.2207031,25.8671875 L42.2597656,25.8671875 C48.2753906,25.8671875 52.7871094,29.9277344 52.7871094,35.9433594 C52.7871094,41.9589844 48.2753906,45.71875 42.2597656,45.71875 L33.9882812,45.71875 L33.9882812,51.1328125 L27.2207031,51.1328125 L27.2207031,45.71875 L21.8066406,45.71875 L21.8066406,39.5527344 L27.2207031,39.5527344 L27.2207031,25.8671875 Z M33.9882812,31.8828125 L33.9882812,39.5527344 L41.9589844,39.5527344 C44.3652344,39.5527344 46.0195312,38.3496094 46.0195312,35.9433594 C46.0195312,33.5371094 44.3652344,31.8828125 41.9589844,31.8828125 L33.9882812,31.8828125 Z" id="Combined-Shape" fill="#F4F6FF" fill-rule="evenodd"></path>
                <path d="M52.7871094,46.921875 C52.7871094,49.328125 54.7421875,51.1328125 56.9980469,51.1328125 C59.2539062,51.1328125 61.2089844,49.328125 61.2089844,46.921875 C61.2089844,44.6660156 59.2539062,42.8613281 56.9980469,42.8613281 C54.7421875,42.8613281 52.7871094,44.6660156 52.7871094,46.921875 Z" id="bpath7" fill="#E31E24" fill-rule="nonzero"></path>
            </g>
        </g>
    </g>
</svg>