<svg id="Layer_1" data-name="Layer 1" xmlns="http://www.w3.org/2000/svg" xmlns:xlink="http://www.w3.org/1999/xlink" width="176" height="24" viewBox="0 0 176 24"><defs><style>.cls-1{fill:none;}.cls-2{clip-path:url(#clip-path);}.cls-3{fill:#e31e24;}.cls-4,.cls-5{fill:#fff;}.cls-5{fill-rule:evenodd;}</style><clipPath id="clip-path"><path class="cls-1" d="M168,19.44A3.57,3.57,0,1,0,171.56,16,3.55,3.55,0,0,0,168,19.44"/></clipPath></defs><title>1Artboard 1</title><g class="cls-2"><rect class="cls-3" x="163" y="11" width="17.13" height="17"/></g><path class="cls-4" d="M144.76,6.24h6.94a3.47,3.47,0,0,1,3.67,3.53c0,2.1-1.57,3.15-3.67,3.15h-6.94ZM139,1V23h5.76V18.29h6.94L154.19,23h6.42l-3.41-6a8,8,0,0,0,4.06-7.21c0-5.23-3.93-8.77-9.3-8.77Z"/><path class="cls-4" d="M144.76,6.24h6.94a3.47,3.47,0,0,1,3.67,3.53c0,2.1-1.57,3.15-3.67,3.15h-6.94ZM139,1V23h5.76V18.29h6.94L154.19,23h6.42l-3.41-6a8,8,0,0,0,4.06-7.21c0-5.23-3.93-8.77-9.3-8.77Z"/><polygon class="cls-5" points="114 1 114 23 134.82 23 134.82 17.63 119.89 17.63 119.89 14.49 129.19 14.49 129.19 9.12 119.89 9.12 119.89 6.24 134.3 6.24 134.3 1 114 1"/><polygon class="cls-4" points="114 1 114 23 134.82 23 134.82 17.63 119.89 17.63 119.89 14.49 129.19 14.49 129.19 9.12 119.89 9.12 119.89 6.24 134.3 6.24 134.3 1 114 1"/><polygon class="cls-5" points="83 1 92.69 23 100.42 23 109.98 1 103.56 1 96.88 17.76 96.36 17.76 89.55 1 83 1"/><polygon class="cls-4" points="103.56 1 96.88 17.76 96.36 17.76 89.55 1 83 1 92.69 23 100.42 23 109.98 1 103.56 1"/><path class="cls-5" d="M63,11.77a6.62,6.62,0,1,0,13.24,0,6.62,6.62,0,1,0-13.24,0m19.39,0c0,7.09-6,11.77-12.7,11.77S57,18.86,57,11.77,62.88,0,69.71,0s12.7,4.68,12.7,11.77"/><path class="cls-4" d="M63,11.77a6.62,6.62,0,1,1,13.24,0,6.62,6.62,0,1,1-13.24,0M69.71,0C62.88,0,57,4.68,57,11.77s5.88,11.77,12.71,11.77,12.7-4.68,12.7-11.77S76.39,0,69.71,0Z"/><path class="cls-5" d="M36.89,6.24v6.68h6.94c2,0,3.54-1.05,3.54-3.15a3.44,3.44,0,0,0-3.54-3.53ZM31,1H44c5.37,0,9.3,3.54,9.3,8.77A8,8,0,0,1,49.2,17l3.41,6H46.19L43.7,18.29H36.89V23H31Z"/><path class="cls-4" d="M36.89,6.24h6.94a3.44,3.44,0,0,1,3.54,3.53c0,2.1-1.57,3.15-3.54,3.15H36.89ZM31,1V23h5.89V18.29H43.7L46.19,23h6.42L49.2,17a8,8,0,0,0,4.06-7.21C53.26,4.54,49.33,1,44,1Z"/><path class="cls-5" d="M10.61,6.24v6.68h6.94c2.09,0,3.53-1.05,3.53-3.15a3.36,3.36,0,0,0-3.53-3.53ZM4.71,1h13.1C23.05,1,27,4.54,27,9.77s-3.93,8.52-9.17,8.52h-7.2V23H4.71V18.29H0V12.92H4.71Z"/><path class="cls-4" d="M10.61,6.24h6.94a3.36,3.36,0,0,1,3.53,3.53c0,2.1-1.44,3.15-3.53,3.15H10.61ZM4.71,1V12.92H0v5.37H4.71V23h5.9V18.29h7.2C23.05,18.29,27,15,27,9.77S23.05,1,17.81,1Z"/></svg>