<?xml version="1.0" encoding="UTF-8"?>
<svg width="165px" height="22px" viewBox="0 0 165 22" version="1.1" xmlns="http://www.w3.org/2000/svg" xmlns:xlink="http://www.w3.org/1999/xlink">
    <!-- Generator: Sketch 47.1 (45422) - http://www.bohemiancoding.com/sketch -->
    <title>Group</title>
    <desc>Created with Sketch.</desc>
    <defs></defs>
    <g id="Page-1" stroke="none" stroke-width="1" fill="none" fill-rule="evenodd">
        <g id="Artboard" transform="translate(-1448.000000, -1559.000000)" fill-rule="nonzero">
            <g id="Group" transform="translate(1448.000000, 1559.000000)">
                <path d="M158,17.375 C158,19.375 159.625,20.875 161.5,20.875 C163.375,20.875 165,19.375 165,17.375 C165,15.5 163.375,14 161.5,14 C159.625,14 158,15.5 158,17.375 Z" id="bpath7" fill="#E31E24"></path>
                <path d="M4.5,0 L4.5,11.375 L0,11.375 L0,16.5 L4.5,16.5 L4.5,21 L10.125,21 L10.125,16.5 L17,16.5 C22,16.5 25.75,13.375 25.75,8.375 C25.75,3.375 22,0 17,0 L4.5,0 Z M10.125,5.5 L16.75,5.5 C18.75,5.5 20.125,6.875 20.125,8.875 C20.125,10.875 18.75,11.875 16.75,11.875 L10.125,11.875 L10.125,5.5 Z M29,0 L29,21 L34.625,21 L34.625,16.5 L41.125,16.5 L43.5,21 L49.625,21 L46.375,15.25 C48.75,13.875 50.25,11.5 50.25,8.375 C50.25,3.375 46.5,0 41.375,0 L29,0 Z M35,5 L41.625,5 C43.5,5 45,6.375 45,8.375 C45,10.375 43.5,11.375 41.625,11.375 L35,11.375 L35,5 Z M59,11.25 C59,7.375 61.75,5 65.25,5 C68.625,5 71.375,7.375 71.375,11.25 C71.375,15.125 68.625,17.5 65.25,17.5 C61.75,17.5 59,15.125 59,11.25 Z M76.75,11 C76.75,4.375 71.125,0 64.875,0 C58.5,0 53,4.375 53,11 C53,17.625 58.5,22 64.875,22 C71.125,22 76.75,17.625 76.75,11 Z M78,0 L87.25,21 L94.625,21 L103.75,0 L97.625,0 L91.25,16 L90.75,16 L84.25,0 L78,0 Z M107,0 L107,21 L126.875,21 L126.875,15.875 L112.625,15.875 L112.625,12.875 L121.5,12.875 L121.5,7.75 L112.625,7.75 L112.625,5 L126.375,5 L126.375,0 L107,0 Z M130,0 L130,21 L135.5,21 L135.5,16.5 L142.125,16.5 L144.5,21 L150.625,21 L147.375,15.25 C149.75,13.875 151.25,11.5 151.25,8.375 C151.25,3.375 147.5,0 142.375,0 L130,0 Z M136,5 L142.625,5 C144.625,5 146.125,6.375 146.125,8.375 C146.125,10.375 144.625,11.375 142.625,11.375 L136,11.375 L136,5 Z" id="bpath9" fill="#FFFFFF"></path>
            </g>
        </g>
    </g>
</svg>