<?xml version="1.0" encoding="UTF-8"?>
<svg width="28px" height="28px" viewBox="0 0 28 28" version="1.1" xmlns="http://www.w3.org/2000/svg" xmlns:xlink="http://www.w3.org/1999/xlink">
    <!-- Generator: Sketch 47.1 (45422) - http://www.bohemiancoding.com/sketch -->
    <title>Oval-13-Copy-5</title>
    <desc>Created with Sketch.</desc>
    <defs></defs>
    <g id="Page-1" stroke="none" stroke-width="1" fill="none" fill-rule="evenodd">
        <path d="M14,28 C21.7319869,28 28,21.7319869 28,14 C28,6.26801311 21.7319869,0 14,0 C6.26801311,0 0,6.26801311 0,14 C0,21.7319869 6.26801311,28 14,28 L14,28 Z M2.40258044,12.4009993 C2.40258044,12.4009993 1.48736156,12.7116811 1.55962022,13.2851584 C1.63187733,13.8585642 2.37851911,14.1213613 2.37851911,14.1213613 L7.243866,15.7463102 L18.9255967,8.38665644 C18.9255967,8.38665644 19.5999798,7.98049 19.5759184,8.38665644 C19.5759184,8.38665644 19.6963729,8.45834111 19.3350827,8.79289289 C18.9737924,9.12744622 10.1583191,16.9887496 10.1583191,16.9887496 L9.52324333,22.3628798 C9.79211644,22.4787936 10.0378647,22.2938473 10.0378647,22.2938473 L13.1818104,19.450116 L18.0825633,23.1775771 C19.4072682,23.7510544 19.8890129,22.5563567 19.8890129,22.5563567 C19.8890129,22.5563567 23.2629227,5.99945422 23.3333333,5.32815733 C23.403744,4.65685889 21.7436582,4.87410622 21.7436582,4.87410622 L2.40258044,12.4009993 L2.40258044,12.4009993 Z" id="Oval-13-Copy-5" fill="#4DBDFF"></path>
    </g>
</svg>