<?xml version="1.0" encoding="UTF-8"?>
<svg width="28px" height="28px" viewBox="0 0 28 28" version="1.1" xmlns="http://www.w3.org/2000/svg" xmlns:xlink="http://www.w3.org/1999/xlink">
    <!-- Generator: Sketch 47.1 (45422) - http://www.bohemiancoding.com/sketch -->
    <title>Oval-13-Copy-6</title>
    <desc>Created with Sketch.</desc>
    <defs></defs>
    <g id="Page-1" stroke="none" stroke-width="1" fill="none" fill-rule="evenodd">
        <path d="M14,28 C21.7319869,28 28,21.7319869 28,14 C28,6.26801311 21.7319869,0 14,0 C6.26801311,0 0,6.26801311 0,14 C0,21.7319869 6.26801311,28 14,28 L14,28 Z M24.1111111,8.06358 C23.4069158,8.37596044 22.6499871,8.58708511 21.8557344,8.68192889 C22.6663531,8.19594067 23.2891027,7.42637933 23.582342,6.50933578 C22.8235,6.95943578 21.9831173,7.28617089 21.0885656,7.46226756 C20.3723116,6.69902333 19.3517162,6.22222222 18.2222087,6.22222222 C16.0535402,6.22222222 14.2951573,7.98041378 14.2951573,10.1490822 C14.2951573,10.4568676 14.3298991,10.7566153 14.3968922,11.0440167 C11.1331702,10.8802664 8.23953822,9.31683356 6.30276267,6.94096511 C5.96482911,7.52093533 5.77102711,8.195558 5.77102711,8.91525756 C5.77102711,10.2777096 6.46421689,11.479664 7.51802022,12.1838593 C6.87431111,12.1634753 6.26869133,11.9868031 5.73934822,11.6927036 C5.73896556,11.709068 5.73896556,11.725434 5.73896556,11.7420862 C5.73896556,13.6446956 7.09261311,15.2318631 8.88908689,15.5926696 C8.55957511,15.6824407 8.21264578,15.7305804 7.85461444,15.7305804 C7.60147578,15.7305804 7.355418,15.7057927 7.11567889,15.6599504 C7.61535289,17.2200327 9.06556622,18.3554731 10.7840398,18.3870556 C9.44005844,19.4404778 7.74694667,20.0681087 5.90692822,20.0681087 C5.59004911,20.0681087 5.27738244,20.049638 4.97016956,20.0133656 C6.708072,21.1274638 8.77223044,21.7777778 10.989804,21.7777778 C18.2130216,21.7777778 22.1630422,15.7938418 22.1630422,10.6044447 C22.1630422,10.434186 22.1591176,10.264884 22.1515576,10.0964438 C22.9189178,9.54269711 23.5846396,8.85113444 24.1111111,8.06358 L24.1111111,8.06358 Z" id="Oval-13-Copy-6" fill="#4AA2D6"></path>
    </g>
</svg>