<svg xmlns="http://www.w3.org/2000/svg" xmlns:xlink="http://www.w3.org/1999/xlink">
    <symbol xmlns="http://www.w3.org/2000/svg" viewBox="0 0 907.29132 518.99998" id="Arrow" clip-rule="evenodd"
            fill-rule="evenodd" image-rendering="optimizeQuality" shape-rendering="geometricPrecision"
            text-rendering="geometricPrecision">
        <g id="aСлой_x0020_1" transform="translate(-18.854 -6)">
            <path class="afil0" id="apolygon7" d="M18 218h808v95H18z"/>
            <path class="afil0" id="apolygon9" d="M668 6l259 260-67 67L601 74z"/>
            <path class="afil0" id="apolygon11" d="M668 525l259-259-67-67-259 259z"/>
        </g>
    </symbol>
    <symbol xmlns="http://www.w3.org/2000/svg" viewBox="0 0 1316 176" id="Prover" clip-rule="evenodd"
            fill-rule="evenodd" image-rendering="optimizeQuality" shape-rendering="geometricPrecision"
            text-rendering="geometricPrecision">
        <defs id="bdefs4">
            <style id="bstyle2">.bfil0{fill:#e31e24}.bfil1{fill:#fff;fill-rule:nonzero}</style>
        </defs>
        <g id="bСлой_x0020_1" transform="translate(-21 -30)">
            <path class="bfil0" d="M1281 174c0 16 13 28 28 28s28-12 28-28c0-15-13-27-28-27s-28 12-28 27z" id="bpath7"
                  fill="#e31e24"/>
            <path class="bfil1"
                  d="M57 34v91H21v41h36v36h45v-36h55c40 0 70-25 70-65s-30-67-70-67zm45 40h53c16 0 27 11 27 27s-11 24-27 24h-53zm153-40v168h45v-36h52l19 36h49l-26-46c19-11 31-30 31-55 0-40-30-67-71-67zm45 40h53c15 0 27 11 27 27s-12 24-27 24h-53zm194 44c0-31 22-50 50-50 27 0 49 19 49 50s-22 50-49 50c-28 0-50-19-50-50zm145 0c0-53-45-88-95-88-51 0-95 35-95 88s44 88 95 88c50 0 95-35 95-88zm5-84l74 168h59l73-168h-49l-51 128h-4L694 34zm231 0v168h159v-41H920v-24h71V96h-71V74h110V34zm189 0v168h44v-36h53l19 36h49l-26-46c19-11 31-30 31-55 0-40-30-67-71-67zm44 40h53c16 0 28 11 28 27s-12 24-28 24h-53z"
                  id="bpath9" fill="#fff" fill-rule="nonzero"/>
        </g>
    </symbol>
    <symbol xmlns="http://www.w3.org/2000/svg" viewBox="0 0 200.722 430.11199" id="facebook">
        <path d="M43.385 83.299v59.218H0v72.412h43.385v215.183h89.122V214.935h59.805s5.601-34.721 8.316-72.685h-67.784V92.739c0-7.4 9.717-17.354 19.321-17.354h48.557V0h-66.021C41.182-.005 43.385 72.479 43.385 83.299z"/>
    </symbol>
    <symbol xmlns="http://www.w3.org/2000/svg" viewBox="0 0 438.54598 427.81847" id="github">
        <path d="M409.132 109.208c-19.608-33.596-46.205-60.194-79.798-79.8C295.736 9.801 259.057 0 219.271 0c-39.781 0-76.472 9.804-110.063 29.408-33.596 19.605-60.192 46.204-79.8 79.8C9.803 142.803 0 179.489 0 219.265c0 47.78 13.94 90.745 41.827 128.906 27.884 38.164 63.906 64.572 108.063 79.227 5.14.954 8.945.283 11.419-1.996 2.475-2.282 3.711-5.14 3.711-8.562 0-.571-.049-5.708-.144-15.417a2549.81 2549.81 0 0 1-.144-25.406l-6.567 1.136c-4.187.767-9.469 1.092-15.846 1-6.374-.089-12.991-.757-19.842-1.999-6.854-1.231-13.229-4.086-19.13-8.559-5.898-4.473-10.085-10.328-12.56-17.556l-2.855-6.57c-1.903-4.374-4.899-9.233-8.992-14.559-4.093-5.331-8.232-8.945-12.419-10.848l-1.999-1.431c-1.332-.951-2.568-2.098-3.711-3.429-1.142-1.331-1.997-2.663-2.568-3.997-.572-1.335-.098-2.43 1.427-3.289 1.525-.859 4.281-1.276 8.28-1.276l5.708.853c3.807.763 8.516 3.042 14.133 6.851 5.614 3.806 10.229 8.754 13.846 14.842 4.38 7.806 9.657 13.754 15.846 17.847 6.184 4.093 12.419 6.136 18.699 6.136 6.28 0 11.704-.476 16.274-1.423 4.565-.952 8.848-2.383 12.847-4.285 1.713-12.758 6.377-22.559 13.988-29.41-10.848-1.14-20.601-2.857-29.264-5.14-8.658-2.286-17.605-5.996-26.835-11.14-9.235-5.137-16.896-11.516-22.985-19.126-6.09-7.614-11.088-17.61-14.987-29.979-3.901-12.374-5.852-26.648-5.852-42.826 0-23.035 7.52-42.637 22.557-58.817-7.044-17.318-6.379-36.732 1.997-58.24 5.52-1.715 13.706-.428 24.554 3.853 10.85 4.283 18.794 7.952 23.84 10.994 5.046 3.041 9.089 5.618 12.135 7.708 17.705-4.947 35.976-7.421 54.818-7.421s37.117 2.474 54.823 7.421l10.849-6.849c7.419-4.57 16.18-8.758 26.262-12.565 10.088-3.805 17.802-4.853 23.134-3.138 8.562 21.509 9.325 40.922 2.279 58.24 15.036 16.18 22.559 35.787 22.559 58.817 0 16.178-1.958 30.497-5.853 42.966-3.9 12.471-8.941 22.457-15.125 29.979-6.191 7.521-13.901 13.85-23.131 18.986-9.232 5.14-18.182 8.85-26.84 11.136-8.662 2.286-18.415 4.004-29.263 5.146 9.894 8.562 14.842 22.077 14.842 40.539v60.237c0 3.422 1.19 6.279 3.572 8.562 2.379 2.279 6.136 2.95 11.276 1.995 44.163-14.653 80.185-41.062 108.068-79.226 27.88-38.161 41.825-81.126 41.825-128.906-.01-39.771-9.818-76.454-29.414-110.049z"/>
    </symbol>
    <symbol xmlns="http://www.w3.org/2000/svg" viewBox="0 0 31.444 31.443" id="slack">
        <path d="M31.202 16.369a2.754 2.754 0 0 0-3.637-1.391l-1.325.594-3.396-7.591 1.325-.592a2.753 2.753 0 0 0-2.248-5.027l-1.324.593-.593-1.326a2.752 2.752 0 1 0-5.026 2.249l.593 1.325L7.98 8.598l-.592-1.325A2.753 2.753 0 1 0 2.362 9.52l.592 1.324-1.324.594a2.754 2.754 0 0 0 2.248 5.026l1.325-.594 3.394 7.592-1.325.592a2.754 2.754 0 0 0 2.248 5.028l1.324-.593.593 1.325a2.752 2.752 0 1 0 5.025-2.247l-.591-1.326 7.591-3.394.592 1.321a2.751 2.751 0 1 0 5.026-2.245l-.592-1.324 1.323-.594a2.75 2.75 0 0 0 1.391-3.636zm-17.579 4.846l-3.395-7.593 7.591-3.394 3.395 7.591-7.591 3.396z"/>
    </symbol>
    <symbol xmlns="http://www.w3.org/2000/svg" viewBox="0 0 299.9996 261.20001" id="telegram">
        <path d="M5.299 125.244l69.126 25.8 26.756 86.047c1.712 5.511 8.45 7.548 12.924 3.891l38.532-31.412a11.496 11.496 0 0 1 14.013-.39l69.498 50.456c4.785 3.478 11.564.856 12.764-4.926l50.91-244.89c1.31-6.317-4.895-11.586-10.91-9.26L5.219 110.001c-7.001 2.7-6.94 12.612.08 15.243zm91.57 12.066l135.098-83.207c2.428-1.49 4.926 1.792 2.84 3.726L123.314 161.47a23.112 23.112 0 0 0-7.163 13.83l-3.798 28.145c-.503 3.758-5.782 4.131-6.82.494l-14.606-51.325c-1.673-5.854.765-12.107 5.943-15.303z"/>
    </symbol>
</svg>